<?xml version="1.0" encoding="UTF-8"?>
<!DOCTYPE svg PUBLIC "-//W3C//DTD SVG 1.1//EN" "http://www.w3.org/Graphics/SVG/1.1/DTD/svg11.dtd">
<!-- Creator: CorelDRAW -->
<svg xmlns="http://www.w3.org/2000/svg" xml:space="preserve" width="66.0825mm" height="39.506mm" style="shape-rendering:geometricPrecision; text-rendering:geometricPrecision; image-rendering:optimizeQuality; fill-rule:evenodd; clip-rule:evenodd"
viewBox="0 0 135.743 81.1508"
 xmlns:xlink="http://www.w3.org/1999/xlink">
 <defs>
  <style type="text/css">
   <![CDATA[
    .str0 {stroke:#2FBA9B;stroke-width:0.156525}
    .str2 {stroke:#2FBA9B;stroke-width:0.964419}
    .str1 {stroke:#2FBA9B;stroke-width:1.60736}
    .fil1 {fill:none;fill-rule:nonzero}
    .fil0 {fill:#2FBA9B;fill-rule:nonzero}
   ]]>
  </style>
 </defs>
 <g id="layer5">
  <metadata id="CorelCorpID_0Corel-Layer"/>
  <g id="_175310824">
   <path id="_96398360" class="fil0" d="M0.641713 61.5369l1.18195 0 0 1.27726c0,0.413909 0.017871,0.689164 0.0507373,0.823915 0.0324554,0.135779 0.132081,0.252865 0.297029,0.352696 0.165153,0.0996258 0.407541,0.149541 0.726549,0.149541 0.253686,0 0.478615,-0.0250605 0.676223,-0.0747707 0.196376,-0.0499156 0.366664,-0.123454 0.51107,-0.220615l0 -2.30803 1.18195 0 0 5.35247 -1.18195 0 0 -2.15479c-0.239718,0.0985987 -0.475533,0.172137 -0.70724,0.221847 -0.231912,0.0499156 -0.459511,0.0747707 -0.683207,0.0747707 -0.58317,0 -1.07123,-0.125713 -1.46399,-0.377551 -0.392546,-0.252865 -0.589127,-0.689164 -0.589127,-1.30972l0 -1.80703z"/>
   <polygon id="_963983601" class="fil0" points="6.48615,66.8894 6.48615,61.5369 10.8268,61.5369 10.8268,62.443 7.6681,62.443 7.6681,63.6292 10.6072,63.6292 10.6072,64.5302 7.6681,64.5302 7.6681,65.9872 10.9383,65.9872 10.9383,66.8894 "/>
   <path id="_9639836012" class="fil0" d="M11.9417 66.8894l0 -5.35247 1.89618 0c0.718538,0 1.1875,0.0273201 1.40565,0.0809331 0.335441,0.079906 0.617474,0.254303 0.843635,0.523395 0.226572,0.269298 0.339549,0.616858 0.339549,1.04186 0,0.329073 -0.0653216,0.605766 -0.196376,0.828845 -0.130849,0.224312 -0.295591,0.399941 -0.497513,0.528325 -0.200484,0.127151 -0.404871,0.211782 -0.612134,0.25307 -0.282033,0.0509427 -0.691013,0.0772357 -1.22673,0.0772357l-0.770302 0 0 2.01881 -1.18195 0zm1.18195 -4.44639l0 1.5178 0.646232 0c0.46629,0 0.778314,-0.0275255 0.93525,-0.0836035 0.156525,-0.056078 0.279158,-0.143174 0.369334,-0.26293 0.0885334,-0.119551 0.133519,-0.257795 0.133519,-0.416169 0,-0.194322 -0.0626513,-0.355161 -0.188159,-0.482312 -0.12407,-0.125919 -0.283471,-0.205619 -0.474301,-0.236842 -0.141736,-0.0248551 -0.425412,-0.0359474 -0.850619,-0.0359474l-0.571256 0z"/>
   <polygon id="_96398360123" class="fil0" points="17.3998,66.8894 17.3998,61.5369 18.5832,61.5369 18.5832,63.643 20.8992,63.643 20.8992,61.5369 22.0812,61.5369 22.0812,66.8894 20.8992,66.8894 20.8992,64.5489 18.5832,64.5489 18.5832,66.8894 "/>
   <polygon id="_963983601234" class="fil0" points="23.2674,66.8894 23.2674,61.5369 24.4492,61.5369 24.4492,66.8894 "/>
   <polygon id="_9639836012345" class="fil0" points="25.6353,61.5369 29.6024,61.5369 29.6024,62.4354 26.8186,62.4354 26.8186,66.8894 25.6353,66.8894 "/>
   <polygon id="_96398360123456" class="fil0" points="30.1761,66.8894 30.1761,61.5369 31.3579,61.5369 31.3579,66.8894 "/>
   <path id="_963983601234567" class="fil0" d="M32.4881 61.5369l2.34069 0c0.463619,0 0.809947,0.0174602 1.03755,0.053613 0.227599,0.0349204 0.430753,0.108459 0.610696,0.220615 0.179943,0.112156 0.328457,0.260465 0.448419,0.447392 0.120167,0.185694 0.180148,0.395011 0.180148,0.625486 0,0.250605 -0.0737436,0.48108 -0.221025,0.690396 -0.148514,0.209317 -0.348998,0.366459 -0.601247,0.471014 0.355982,0.0949013 0.631237,0.256767 0.822272,0.484777 0.192062,0.229447 0.28758,0.49854 0.28758,0.807688 0,0.243005 -0.0614188,0.479847 -0.185489,0.710322 -0.123865,0.229242 -0.293126,0.413704 -0.507167,0.550715 -0.214041,0.137217 -0.478615,0.221847 -0.793309,0.254303 -0.196376,0.0186927 -0.672115,0.0312229 -1.42598,0.0361529l-1.99313 0 0 -5.35247zm1.18339 0.891086l0 1.23741 0.774205 0c0.460949,0 0.747091,-0.00616242 0.858836,-0.0186927 0.201717,-0.0211576 0.361323,-0.0846306 0.477177,-0.190624 0.115853,-0.105994 0.173164,-0.24547 0.173164,-0.418839 0,-0.165564 -0.0490939,-0.300315 -0.148514,-0.403638 -0.100858,-0.103529 -0.249578,-0.165769 -0.445954,-0.186927 -0.117291,-0.0125303 -0.453759,-0.0186927 -1.01002,-0.0186927l-0.678893 0zm0 2.1285l0 1.43071 1.09321 0c0.42685,0 0.696764,-0.0100653 0.81118,-0.0324554 0.175834,-0.028758 0.319008,-0.101064 0.429521,-0.21322 0.110307,-0.113389 0.16618,-0.265395 0.16618,-0.454787 0,-0.160839 -0.0435478,-0.296618 -0.127973,-0.408774 -0.0860685,-0.112156 -0.208701,-0.194322 -0.36954,-0.24547 -0.160839,-0.0511481 -0.511275,-0.0760032 -1.04843,-0.0760032l-0.954148 0z"/>
   <path id="_9639836012345678" class="fil0" d="M41.8264 64.9215l1.14518 0.331538c-0.17604,0.584608 -0.467522,1.01824 -0.876501,1.30232 -0.407747,0.282855 -0.927033,0.425002 -1.55539,0.425002 -0.777081,0 -1.41653,-0.243005 -1.91672,-0.727782 -0.500388,-0.486009 -0.751199,-1.15032 -0.751199,-1.99149 0,-0.891086 0.252043,-1.58271 0.755102,-2.07612 0.503264,-0.492377 1.16429,-0.73908 1.98492,-0.73908 0.715662,0 1.29781,0.193089 1.74499,0.580705 0.267244,0.22801 0.46629,0.557083 0.599809,0.985782l-1.17107 0.255535c-0.067992,-0.277925 -0.212809,-0.497307 -0.433424,-0.658146 -0.219588,-0.160634 -0.486626,-0.240334 -0.800293,-0.240334 -0.433424,0 -0.78653,0.141941 -1.05644,0.427466 -0.270119,0.284088 -0.404871,0.745037 -0.404871,1.38326 0,0.676634 0.132081,1.15895 0.399325,1.4455 0.265806,0.28799 0.612134,0.431164 1.03755,0.431164 0.3149,0 0.584814,-0.0909984 0.810974,-0.274022 0.226366,-0.181997 0.388643,-0.469987 0.488064,-0.861301z"/>
   <path id="_96398360123456789" class="fil0" d="M44.0104 61.5369l1.18195 0 0 2.1398 1.58128 0c0.745653,0 1.28569,0.159401 1.61948,0.478409 0.335441,0.319008 0.501826,0.700462 0.501826,1.14662 0,0.365021 -0.100858,0.675401 -0.304013,0.930936 -0.201922,0.25533 -0.432191,0.428699 -0.692656,0.519697 -0.259027,0.0909984 -0.633908,0.137011 -1.12464,0.137011l-2.76323 0 0 -5.35247zm1.18195 4.45399l1.15052 0c0.37221,0 0.631237,-0.0162277 0.774411,-0.0486831 0.144406,-0.0336879 0.272584,-0.108459 0.385767,-0.224312 0.112978,-0.117086 0.170288,-0.260465 0.170288,-0.431164 0,-0.24547 -0.09675,-0.426234 -0.29025,-0.540855 -0.192267,-0.114621 -0.522162,-0.170699 -0.988452,-0.170699l-1.20229 0 0 1.41571z"/>
   <path id="_9639836012345678910" class="fil0" d="M49.8858 61.5369l1.18195 0 0 2.27804c0.264368,-0.0236226 0.443078,-0.085863 0.53572,-0.185694 0.0926417,-0.0996258 0.237253,-0.377551 0.430753,-0.832337 0.24547,-0.579678 0.492172,-0.939769 0.73908,-1.08048 0.245264,-0.142146 0.640481,-0.211987 1.18585,-0.211987 0.0273201,0 0.0844251,-0.00123248 0.171726,-0.00369745l0 0.798855 -0.167618 -0.00369745c-0.241361,0 -0.418428,0.0273201 -0.530379,0.0821656 -0.11154,0.0548455 -0.203154,0.138244 -0.271146,0.2504 -0.0696353,0.112361 -0.171932,0.341603 -0.308121,0.690602 -0.0723057,0.184256 -0.150158,0.338933 -0.233145,0.463414 -0.0846306,0.123454 -0.233145,0.24054 -0.445954,0.350231 0.263135,0.0686083 0.48149,0.205619 0.653011,0.412471 0.171932,0.206852 0.360091,0.499772 0.564478,0.876091l0.798855 1.46809 -1.38921 0 -0.699229 -1.38326c-0.0108869,-0.0199252 -0.0326608,-0.0573105 -0.0681974,-0.113389 -0.0121194,-0.0199252 -0.0626513,-0.103529 -0.147282,-0.251838 -0.151185,-0.26293 -0.276487,-0.427466 -0.373443,-0.493404 -0.09675,-0.0661433 -0.245264,-0.0998312 -0.445748,-0.102296l0 2.34418 -1.18195 0 0 -5.35247z"/>
   <polygon id="_963983601234567891011" class="fil0" points="54.8739,61.5369 55.9809,61.5369 55.9809,65.0998 58.3528,61.5369 59.5306,61.5369 59.5306,66.8894 58.4251,66.8894 58.4251,63.3951 56.0558,66.8894 54.8739,66.8894 "/>
   <path id="_96398360123456789101112" class="fil0" d="M60.7534 61.5369l1.10698 0 0 3.56291 2.37192 -3.56291 1.17784 0 0 5.35247 -1.10554 0 0 -3.4943 -2.36924 3.4943 -1.18195 0 0 -5.35247zm3.03602 -1.33211l0.546607 0c-0.0314283,0.3301 -0.158169,0.590565 -0.380427,0.778724 -0.22349,0.189392 -0.51107,0.282855 -0.865615,0.282855 -0.354339,0 -0.642124,-0.0934634 -0.864382,-0.282855 -0.222053,-0.188159 -0.348793,-0.448624 -0.381659,-0.778724l0.548045 0c0.0176656,0.173164 0.0844251,0.30278 0.199046,0.392546 0.114621,0.088328 0.281006,0.133314 0.498951,0.133314 0.21815,0 0.38433,-0.0449857 0.498951,-0.133314 0.114621,-0.0897659 0.181381,-0.219382 0.200484,-0.392546z"/>
   <polygon id="_9639836012345678910111213" class="fil0" points="68.8932,66.8894 68.8932,61.5369 70.0766,61.5369 70.0766,63.643 72.3926,63.643 72.3926,61.5369 73.5746,61.5369 73.5746,66.8894 72.3926,66.8894 72.3926,64.5489 70.0766,64.5489 70.0766,66.8894 "/>
   <path id="_963983601234567891011121314" class="fil0" d="M80.0771 66.8894l-1.28671 0 -0.511275 -1.21626 -2.34069 0 -0.482723 1.21626 -1.25405 0 2.28071 -5.35247 1.24994 0 2.3448 5.35247zm-2.17698 -2.11741l-0.807072 -1.98635 -0.790638 1.98635 1.59771 0z"/>
   <polygon id="_96398360123456789101112131415" class="fil0" points="80.7236,61.5369 81.9055,61.5369 81.9055,65.9909 84.1984,65.9909 84.1984,61.5369 85.3803,61.5369 85.3803,65.9909 85.8684,65.9909 85.8684,68.0571 84.8855,68.0571 84.8855,66.8894 80.7236,66.8894 "/>
   <polygon id="_9639836012345678910111213141516" class="fil0" points="86.6428,66.8894 86.6428,61.5369 87.8245,61.5369 87.8245,66.8894 "/>
   <path id="_963983601234567891011121314151617" class="fil0" d="M88.7119 64.2461c0,-0.545785 0.0887388,-1.00324 0.267244,-1.37319 0.133519,-0.271763 0.3149,-0.517232 0.545169,-0.73415 0.23068,-0.215479 0.482723,-0.376318 0.75654,-0.48108 0.365431,-0.141941 0.785503,-0.211782 1.26247,-0.211782 0.86315,0 1.55272,0.244237 2.07078,0.733944 0.518054,0.48868 0.777081,1.16901 0.777081,2.04017 0,0.864793 -0.257795,1.54019 -0.771535,2.02887 -0.513946,0.487242 -1.20106,0.731479 -2.05989,0.731479 -0.871161,0 -1.56382,-0.243005 -2.07756,-0.727782 -0.513946,-0.486009 -0.770302,-1.15525 -0.770302,-2.00648zm1.21728 -0.0361529c0,0.605766 0.154266,1.06548 0.459511,1.37833 0.306888,0.312845 0.695326,0.468549 1.16696,0.468549 0.470398,0 0.857398,-0.154471 1.16018,-0.466084 0.301342,-0.310175 0.452527,-0.775027 0.452527,-1.39558 0,-0.613161 -0.147282,-1.07062 -0.440408,-1.3734 -0.294358,-0.301548 -0.685672,-0.452322 -1.1723,-0.452322 -0.488064,0 -0.88061,0.153239 -1.17928,0.458484 -0.297234,0.305451 -0.447186,0.765167 -0.447186,1.38203z"/>
   <polygon id="_96398360123456789101112131415161718" class="fil0" points="95.3168,66.8894 95.3168,61.5369 96.5002,61.5369 96.5002,63.643 98.8162,63.643 98.8162,61.5369 99.9982,61.5369 99.9982,66.8894 98.8162,66.8894 98.8162,64.5489 96.5002,64.5489 96.5002,66.8894 "/>
   <path id="_9639836012345678910111213141516171819" class="fil0" d="M106.501 66.8894l-1.28671 0 -0.511275 -1.21626 -2.34069 0 -0.482723 1.21626 -1.25405 0 2.28071 -5.35247 1.24994 0 2.3448 5.35247zm-2.17698 -2.11741l-0.807072 -1.98635 -0.790638 1.98635 1.59771 0z"/>
   <path id="_963983601234567891011121314151617181920" class="fil0" d="M107.646 61.5369l4.10191 0 0 5.35247 -1.18195 0 0 -4.44639 -1.76122 0 0 2.28544c0,0.654244 -0.0246497,1.1117 -0.0723057,1.37093 -0.047656,0.259232 -0.164947,0.460949 -0.348998,0.60556 -0.185283,0.144611 -0.474301,0.216917 -0.869723,0.216917 -0.137833,0 -0.389876,-0.0112978 -0.753869,-0.0361529l0 -0.83624 0.26293 0.00369745c0.24814,0 0.414525,-0.029785 0.499156,-0.0909984 0.085863,-0.061008 0.128178,-0.210549 0.128178,-0.449857l-0.00410828 -0.919638 0 -3.05574z"/>
   <path id="_96398360123456789101112131415161718192021" class="fil0" d="M112.99 61.5369l1.18195 0 0 2.1398 1.58128 0c0.745653,0 1.28569,0.159401 1.61948,0.478409 0.335441,0.319008 0.501826,0.700462 0.501826,1.14662 0,0.365021 -0.100858,0.675401 -0.304013,0.930936 -0.201922,0.25533 -0.432191,0.428699 -0.692656,0.519697 -0.259027,0.0909984 -0.633908,0.137011 -1.12464,0.137011l-2.76323 0 0 -5.35247zm1.18195 4.45399l1.15052 0c0.37221,0 0.631237,-0.0162277 0.774411,-0.0486831 0.144406,-0.0336879 0.272584,-0.108459 0.385767,-0.224312 0.112978,-0.117086 0.170288,-0.260465 0.170288,-0.431164 0,-0.24547 -0.09675,-0.426234 -0.29025,-0.540855 -0.192267,-0.114621 -0.522162,-0.170699 -0.988452,-0.170699l-1.20229 0 0 1.41571z"/>
   <polygon id="_9639836012345678910111213141516171819202122" class="fil0" points="118.849,66.8894 118.849,61.5369 120.032,61.5369 120.032,63.643 122.348,63.643 122.348,61.5369 123.53,61.5369 123.53,66.8894 122.348,66.8894 122.348,64.5489 120.032,64.5489 120.032,66.8894 "/>
   <polygon id="_963983601234567891011121314151617181920212223" class="fil0" points="124.768,61.5369 125.875,61.5369 125.875,65.0998 128.247,61.5369 129.425,61.5369 129.425,66.8894 128.319,66.8894 128.319,63.3951 125.95,66.8894 124.768,66.8894 "/>
   <path id="_96398360123456789101112131415161718192021222324" class="fil0" d="M130.648 61.5369l1.10698 0 0 3.56291 2.37192 -3.56291 1.17784 0 0 5.35247 -1.10554 0 0 -3.4943 -2.36924 3.4943 -1.18195 0 0 -5.35247zm3.03602 -1.33211l0.546607 0c-0.0314283,0.3301 -0.158169,0.590565 -0.380427,0.778724 -0.22349,0.189392 -0.51107,0.282855 -0.865615,0.282855 -0.354339,0 -0.642124,-0.0934634 -0.864382,-0.282855 -0.222053,-0.188159 -0.348793,-0.448624 -0.381659,-0.778724l0.548045 0c0.0176656,0.173164 0.0844251,0.30278 0.199046,0.392546 0.114621,0.088328 0.281006,0.133314 0.498951,0.133314 0.21815,0 0.38433,-0.0449857 0.498951,-0.133314 0.114621,-0.0897659 0.181381,-0.219382 0.200484,-0.392546z"/>
   <g>
    <path id="_9639836012345678910111213141516171819202122232425" class="fil1 str0" d="M0.641713 61.5369l1.18195 0 0 1.27726c0,0.413909 0.017871,0.689164 0.0507373,0.823915 0.0324554,0.135779 0.132081,0.252865 0.297029,0.352696 0.165153,0.0996258 0.407541,0.149541 0.726549,0.149541 0.253686,0 0.478615,-0.0250605 0.676223,-0.0747707 0.196376,-0.0499156 0.366664,-0.123454 0.51107,-0.220615l0 -2.30803 1.18195 0 0 5.35247 -1.18195 0 0 -2.15479c-0.239718,0.0985987 -0.475533,0.172137 -0.70724,0.221847 -0.231912,0.0499156 -0.459511,0.0747707 -0.683207,0.0747707 -0.58317,0 -1.07123,-0.125713 -1.46399,-0.377551 -0.392546,-0.252865 -0.589127,-0.689164 -0.589127,-1.30972l0 -1.80703z"/>
   </g>
   <g>
    <polygon id="_963983601234567891011121314151617181920212223242526" class="fil1 str0" points="6.48615,66.8894 6.48615,61.5369 10.8268,61.5369 10.8268,62.443 7.6681,62.443 7.6681,63.6292 10.6072,63.6292 10.6072,64.5302 7.6681,64.5302 7.6681,65.9872 10.9383,65.9872 10.9383,66.8894 "/>
   </g>
   <g>
    <path id="_96398360123456789101112131415161718192021222324252627" class="fil1 str0" d="M11.9417 66.8894l0 -5.35247 1.89618 0c0.718538,0 1.1875,0.0273201 1.40565,0.0809331 0.335441,0.079906 0.617474,0.254303 0.843635,0.523395 0.226572,0.269298 0.339549,0.616858 0.339549,1.04186 0,0.329073 -0.0653216,0.605766 -0.196376,0.828845 -0.130849,0.224312 -0.295591,0.399941 -0.497513,0.528325 -0.200484,0.127151 -0.404871,0.211782 -0.612134,0.25307 -0.282033,0.0509427 -0.691013,0.0772357 -1.22673,0.0772357l-0.770302 0 0 2.01881 -1.18195 0zm1.18195 -4.44639l0 1.5178 0.646232 0c0.46629,0 0.778314,-0.0275255 0.93525,-0.0836035 0.156525,-0.056078 0.279158,-0.143174 0.369334,-0.26293 0.0885334,-0.119551 0.133519,-0.257795 0.133519,-0.416169 0,-0.194322 -0.0626513,-0.355161 -0.188159,-0.482312 -0.12407,-0.125919 -0.283471,-0.205619 -0.474301,-0.236842 -0.141736,-0.0248551 -0.425412,-0.0359474 -0.850619,-0.0359474l-0.571256 0z"/>
   </g>
   <g>
    <polygon id="_9639836012345678910111213141516171819202122232425262728" class="fil1 str0" points="17.3998,66.8894 17.3998,61.5369 18.5832,61.5369 18.5832,63.643 20.8992,63.643 20.8992,61.5369 22.0812,61.5369 22.0812,66.8894 20.8992,66.8894 20.8992,64.5489 18.5832,64.5489 18.5832,66.8894 "/>
   </g>
   <g>
    <polygon id="_963983601234567891011121314151617181920212223242526272829" class="fil1 str0" points="23.2674,66.8894 23.2674,61.5369 24.4492,61.5369 24.4492,66.8894 "/>
   </g>
   <g>
    <polygon id="_96398360123456789101112131415161718192021222324252627282930" class="fil1 str0" points="25.6353,61.5369 29.6024,61.5369 29.6024,62.4354 26.8186,62.4354 26.8186,66.8894 25.6353,66.8894 "/>
   </g>
   <g>
    <polygon id="_9639836012345678910111213141516171819202122232425262728293031" class="fil1 str0" points="30.1761,66.8894 30.1761,61.5369 31.3579,61.5369 31.3579,66.8894 "/>
   </g>
   <g>
    <path id="_963983601234567891011121314151617181920212223242526272829303132" class="fil1 str0" d="M32.4881 61.5369l2.34069 0c0.463619,0 0.809947,0.0174602 1.03755,0.053613 0.227599,0.0349204 0.430753,0.108459 0.610696,0.220615 0.179943,0.112156 0.328457,0.260465 0.448419,0.447392 0.120167,0.185694 0.180148,0.395011 0.180148,0.625486 0,0.250605 -0.0737436,0.48108 -0.221025,0.690396 -0.148514,0.209317 -0.348998,0.366459 -0.601247,0.471014 0.355982,0.0949013 0.631237,0.256767 0.822272,0.484777 0.192062,0.229447 0.28758,0.49854 0.28758,0.807688 0,0.243005 -0.0614188,0.479847 -0.185489,0.710322 -0.123865,0.229242 -0.293126,0.413704 -0.507167,0.550715 -0.214041,0.137217 -0.478615,0.221847 -0.793309,0.254303 -0.196376,0.0186927 -0.672115,0.0312229 -1.42598,0.0361529l-1.99313 0 0 -5.35247zm1.18339 0.891086l0 1.23741 0.774205 0c0.460949,0 0.747091,-0.00616242 0.858836,-0.0186927 0.201717,-0.0211576 0.361323,-0.0846306 0.477177,-0.190624 0.115853,-0.105994 0.173164,-0.24547 0.173164,-0.418839 0,-0.165564 -0.0490939,-0.300315 -0.148514,-0.403638 -0.100858,-0.103529 -0.249578,-0.165769 -0.445954,-0.186927 -0.117291,-0.0125303 -0.453759,-0.0186927 -1.01002,-0.0186927l-0.678893 0zm0 2.1285l0 1.43071 1.09321 0c0.42685,0 0.696764,-0.0100653 0.81118,-0.0324554 0.175834,-0.028758 0.319008,-0.101064 0.429521,-0.21322 0.110307,-0.113389 0.16618,-0.265395 0.16618,-0.454787 0,-0.160839 -0.0435478,-0.296618 -0.127973,-0.408774 -0.0860685,-0.112156 -0.208701,-0.194322 -0.36954,-0.24547 -0.160839,-0.0511481 -0.511275,-0.0760032 -1.04843,-0.0760032l-0.954148 0z"/>
   </g>
   <g>
    <path id="_96398360123456789101112131415161718192021222324252627282930313233" class="fil1 str0" d="M41.8264 64.9215l1.14518 0.331538c-0.17604,0.584608 -0.467522,1.01824 -0.876501,1.30232 -0.407747,0.282855 -0.927033,0.425002 -1.55539,0.425002 -0.777081,0 -1.41653,-0.243005 -1.91672,-0.727782 -0.500388,-0.486009 -0.751199,-1.15032 -0.751199,-1.99149 0,-0.891086 0.252043,-1.58271 0.755102,-2.07612 0.503264,-0.492377 1.16429,-0.73908 1.98492,-0.73908 0.715662,0 1.29781,0.193089 1.74499,0.580705 0.267244,0.22801 0.46629,0.557083 0.599809,0.985782l-1.17107 0.255535c-0.067992,-0.277925 -0.212809,-0.497307 -0.433424,-0.658146 -0.219588,-0.160634 -0.486626,-0.240334 -0.800293,-0.240334 -0.433424,0 -0.78653,0.141941 -1.05644,0.427466 -0.270119,0.284088 -0.404871,0.745037 -0.404871,1.38326 0,0.676634 0.132081,1.15895 0.399325,1.4455 0.265806,0.28799 0.612134,0.431164 1.03755,0.431164 0.3149,0 0.584814,-0.0909984 0.810974,-0.274022 0.226366,-0.181997 0.388643,-0.469987 0.488064,-0.861301z"/>
   </g>
   <g>
    <path id="_9639836012345678910111213141516171819202122232425262728293031323334" class="fil1 str0" d="M44.0104 61.5369l1.18195 0 0 2.1398 1.58128 0c0.745653,0 1.28569,0.159401 1.61948,0.478409 0.335441,0.319008 0.501826,0.700462 0.501826,1.14662 0,0.365021 -0.100858,0.675401 -0.304013,0.930936 -0.201922,0.25533 -0.432191,0.428699 -0.692656,0.519697 -0.259027,0.0909984 -0.633908,0.137011 -1.12464,0.137011l-2.76323 0 0 -5.35247zm1.18195 4.45399l1.15052 0c0.37221,0 0.631237,-0.0162277 0.774411,-0.0486831 0.144406,-0.0336879 0.272584,-0.108459 0.385767,-0.224312 0.112978,-0.117086 0.170288,-0.260465 0.170288,-0.431164 0,-0.24547 -0.09675,-0.426234 -0.29025,-0.540855 -0.192267,-0.114621 -0.522162,-0.170699 -0.988452,-0.170699l-1.20229 0 0 1.41571z"/>
   </g>
   <g>
    <path id="_963983601234567891011121314151617181920212223242526272829303132333435" class="fil1 str0" d="M49.8858 61.5369l1.18195 0 0 2.27804c0.264368,-0.0236226 0.443078,-0.085863 0.53572,-0.185694 0.0926417,-0.0996258 0.237253,-0.377551 0.430753,-0.832337 0.24547,-0.579678 0.492172,-0.939769 0.73908,-1.08048 0.245264,-0.142146 0.640481,-0.211987 1.18585,-0.211987 0.0273201,0 0.0844251,-0.00123248 0.171726,-0.00369745l0 0.798855 -0.167618 -0.00369745c-0.241361,0 -0.418428,0.0273201 -0.530379,0.0821656 -0.11154,0.0548455 -0.203154,0.138244 -0.271146,0.2504 -0.0696353,0.112361 -0.171932,0.341603 -0.308121,0.690602 -0.0723057,0.184256 -0.150158,0.338933 -0.233145,0.463414 -0.0846306,0.123454 -0.233145,0.24054 -0.445954,0.350231 0.263135,0.0686083 0.48149,0.205619 0.653011,0.412471 0.171932,0.206852 0.360091,0.499772 0.564478,0.876091l0.798855 1.46809 -1.38921 0 -0.699229 -1.38326c-0.0108869,-0.0199252 -0.0326608,-0.0573105 -0.0681974,-0.113389 -0.0121194,-0.0199252 -0.0626513,-0.103529 -0.147282,-0.251838 -0.151185,-0.26293 -0.276487,-0.427466 -0.373443,-0.493404 -0.09675,-0.0661433 -0.245264,-0.0998312 -0.445748,-0.102296l0 2.34418 -1.18195 0 0 -5.35247z"/>
   </g>
   <g>
    <polygon id="_96398360123456789101112131415161718192021222324252627282930313233343536" class="fil1 str0" points="54.8739,61.5369 55.9809,61.5369 55.9809,65.0998 58.3528,61.5369 59.5306,61.5369 59.5306,66.8894 58.4251,66.8894 58.4251,63.3951 56.0558,66.8894 54.8739,66.8894 "/>
   </g>
   <g>
    <path id="_9639836012345678910111213141516171819202122232425262728293031323334353637" class="fil1 str0" d="M60.7534 61.5369l1.10698 0 0 3.56291 2.37192 -3.56291 1.17784 0 0 5.35247 -1.10554 0 0 -3.4943 -2.36924 3.4943 -1.18195 0 0 -5.35247zm3.03602 -1.33211l0.546607 0c-0.0314283,0.3301 -0.158169,0.590565 -0.380427,0.778724 -0.22349,0.189392 -0.51107,0.282855 -0.865615,0.282855 -0.354339,0 -0.642124,-0.0934634 -0.864382,-0.282855 -0.222053,-0.188159 -0.348793,-0.448624 -0.381659,-0.778724l0.548045 0c0.0176656,0.173164 0.0844251,0.30278 0.199046,0.392546 0.114621,0.088328 0.281006,0.133314 0.498951,0.133314 0.21815,0 0.38433,-0.0449857 0.498951,-0.133314 0.114621,-0.0897659 0.181381,-0.219382 0.200484,-0.392546z"/>
   </g>
   <g>
    <polygon id="_963983601234567891011121314151617181920212223242526272829303132333435363738" class="fil1 str0" points="68.8932,66.8894 68.8932,61.5369 70.0766,61.5369 70.0766,63.643 72.3926,63.643 72.3926,61.5369 73.5746,61.5369 73.5746,66.8894 72.3926,66.8894 72.3926,64.5489 70.0766,64.5489 70.0766,66.8894 "/>
   </g>
   <g>
    <path id="_96398360123456789101112131415161718192021222324252627282930313233343536373839" class="fil1 str0" d="M80.0771 66.8894l-1.28671 0 -0.511275 -1.21626 -2.34069 0 -0.482723 1.21626 -1.25405 0 2.28071 -5.35247 1.24994 0 2.3448 5.35247zm-2.17698 -2.11741l-0.807072 -1.98635 -0.790638 1.98635 1.59771 0z"/>
   </g>
   <g>
    <polygon id="_9639836012345678910111213141516171819202122232425262728293031323334353637383940" class="fil1 str0" points="80.7236,61.5369 81.9055,61.5369 81.9055,65.9909 84.1984,65.9909 84.1984,61.5369 85.3803,61.5369 85.3803,65.9909 85.8684,65.9909 85.8684,68.0571 84.8855,68.0571 84.8855,66.8894 80.7236,66.8894 "/>
   </g>
   <g>
    <polygon id="_963983601234567891011121314151617181920212223242526272829303132333435363738394041" class="fil1 str0" points="86.6428,66.8894 86.6428,61.5369 87.8245,61.5369 87.8245,66.8894 "/>
   </g>
   <g>
    <path id="_96398360123456789101112131415161718192021222324252627282930313233343536373839404142" class="fil1 str0" d="M88.7119 64.2461c0,-0.545785 0.0887388,-1.00324 0.267244,-1.37319 0.133519,-0.271763 0.3149,-0.517232 0.545169,-0.73415 0.23068,-0.215479 0.482723,-0.376318 0.75654,-0.48108 0.365431,-0.141941 0.785503,-0.211782 1.26247,-0.211782 0.86315,0 1.55272,0.244237 2.07078,0.733944 0.518054,0.48868 0.777081,1.16901 0.777081,2.04017 0,0.864793 -0.257795,1.54019 -0.771535,2.02887 -0.513946,0.487242 -1.20106,0.731479 -2.05989,0.731479 -0.871161,0 -1.56382,-0.243005 -2.07756,-0.727782 -0.513946,-0.486009 -0.770302,-1.15525 -0.770302,-2.00648zm1.21728 -0.0361529c0,0.605766 0.154266,1.06548 0.459511,1.37833 0.306888,0.312845 0.695326,0.468549 1.16696,0.468549 0.470398,0 0.857398,-0.154471 1.16018,-0.466084 0.301342,-0.310175 0.452527,-0.775027 0.452527,-1.39558 0,-0.613161 -0.147282,-1.07062 -0.440408,-1.3734 -0.294358,-0.301548 -0.685672,-0.452322 -1.1723,-0.452322 -0.488064,0 -0.88061,0.153239 -1.17928,0.458484 -0.297234,0.305451 -0.447186,0.765167 -0.447186,1.38203z"/>
   </g>
   <g>
    <polygon id="_9639836012345678910111213141516171819202122232425262728293031323334353637383940414243" class="fil1 str0" points="95.3168,66.8894 95.3168,61.5369 96.5002,61.5369 96.5002,63.643 98.8162,63.643 98.8162,61.5369 99.9982,61.5369 99.9982,66.8894 98.8162,66.8894 98.8162,64.5489 96.5002,64.5489 96.5002,66.8894 "/>
   </g>
   <g>
    <path id="_963983601234567891011121314151617181920212223242526272829303132333435363738394041424344" class="fil1 str0" d="M106.501 66.8894l-1.28671 0 -0.511275 -1.21626 -2.34069 0 -0.482723 1.21626 -1.25405 0 2.28071 -5.35247 1.24994 0 2.3448 5.35247zm-2.17698 -2.11741l-0.807072 -1.98635 -0.790638 1.98635 1.59771 0z"/>
   </g>
   <g>
    <path id="_96398360123456789101112131415161718192021222324252627282930313233343536373839404142434445" class="fil1 str0" d="M107.646 61.5369l4.10191 0 0 5.35247 -1.18195 0 0 -4.44639 -1.76122 0 0 2.28544c0,0.654244 -0.0246497,1.1117 -0.0723057,1.37093 -0.047656,0.259232 -0.164947,0.460949 -0.348998,0.60556 -0.185283,0.144611 -0.474301,0.216917 -0.869723,0.216917 -0.137833,0 -0.389876,-0.0112978 -0.753869,-0.0361529l0 -0.83624 0.26293 0.00369745c0.24814,0 0.414525,-0.029785 0.499156,-0.0909984 0.085863,-0.061008 0.128178,-0.210549 0.128178,-0.449857l-0.00410828 -0.919638 0 -3.05574z"/>
   </g>
   <g>
    <path id="_9639836012345678910111213141516171819202122232425262728293031323334353637383940414243444546" class="fil1 str0" d="M112.99 61.5369l1.18195 0 0 2.1398 1.58128 0c0.745653,0 1.28569,0.159401 1.61948,0.478409 0.335441,0.319008 0.501826,0.700462 0.501826,1.14662 0,0.365021 -0.100858,0.675401 -0.304013,0.930936 -0.201922,0.25533 -0.432191,0.428699 -0.692656,0.519697 -0.259027,0.0909984 -0.633908,0.137011 -1.12464,0.137011l-2.76323 0 0 -5.35247zm1.18195 4.45399l1.15052 0c0.37221,0 0.631237,-0.0162277 0.774411,-0.0486831 0.144406,-0.0336879 0.272584,-0.108459 0.385767,-0.224312 0.112978,-0.117086 0.170288,-0.260465 0.170288,-0.431164 0,-0.24547 -0.09675,-0.426234 -0.29025,-0.540855 -0.192267,-0.114621 -0.522162,-0.170699 -0.988452,-0.170699l-1.20229 0 0 1.41571z"/>
   </g>
   <g>
    <polygon id="_963983601234567891011121314151617181920212223242526272829303132333435363738394041424344454647" class="fil1 str0" points="118.849,66.8894 118.849,61.5369 120.032,61.5369 120.032,63.643 122.348,63.643 122.348,61.5369 123.53,61.5369 123.53,66.8894 122.348,66.8894 122.348,64.5489 120.032,64.5489 120.032,66.8894 "/>
   </g>
   <g>
    <polygon id="_96398360123456789101112131415161718192021222324252627282930313233343536373839404142434445464748" class="fil1 str0" points="124.768,61.5369 125.875,61.5369 125.875,65.0998 128.247,61.5369 129.425,61.5369 129.425,66.8894 128.319,66.8894 128.319,63.3951 125.95,66.8894 124.768,66.8894 "/>
   </g>
   <g>
    <path id="_9639836012345678910111213141516171819202122232425262728293031323334353637383940414243444546474849" class="fil1 str0" d="M130.648 61.5369l1.10698 0 0 3.56291 2.37192 -3.56291 1.17784 0 0 5.35247 -1.10554 0 0 -3.4943 -2.36924 3.4943 -1.18195 0 0 -5.35247zm3.03602 -1.33211l0.546607 0c-0.0314283,0.3301 -0.158169,0.590565 -0.380427,0.778724 -0.22349,0.189392 -0.51107,0.282855 -0.865615,0.282855 -0.354339,0 -0.642124,-0.0934634 -0.864382,-0.282855 -0.222053,-0.188159 -0.348793,-0.448624 -0.381659,-0.778724l0.548045 0c0.0176656,0.173164 0.0844251,0.30278 0.199046,0.392546 0.114621,0.088328 0.281006,0.133314 0.498951,0.133314 0.21815,0 0.38433,-0.0449857 0.498951,-0.133314 0.114621,-0.0897659 0.181381,-0.219382 0.200484,-0.392546z"/>
   </g>
   <polygon class="fil0" points="2.80164,80.7474 2.80164,72.5029 0.996463,72.5029 0.996463,70.823 5.83232,70.823 5.83232,72.5029 4.03145,72.5029 4.03145,80.7474 "/>
   <polygon id="1" class="fil0" points="6.62604,80.7474 6.62604,70.823 11.1375,70.823 11.1375,72.5029 7.85441,72.5029 7.85441,74.7027 10.9093,74.7027 10.9093,76.3733 7.85441,76.3733 7.85441,79.0745 11.2536,79.0745 11.2536,80.7474 "/>
   <polygon id="12" class="fil0" points="11.6772,80.7474 13.7572,75.5691 11.8727,70.823 13.3082,70.823 14.5293,74.0117 15.7238,70.823 17.148,70.823 15.2549,75.6431 17.3349,80.7474 15.8528,80.7474 14.5041,77.316 13.1508,80.7474 "/>
   <polygon id="123" class="fil0" points="17.9698,80.7474 17.9698,70.823 19.1996,70.823 19.1996,74.728 21.6071,74.728 21.6071,70.823 22.8355,70.823 22.8355,80.7474 21.6071,80.7474 21.6071,76.4078 19.1996,76.4078 19.1996,80.7474 "/>
   <path id="1234" class="fil0" d="M23.857 75.8464c0,-1.01207 0.0922309,-1.86023 0.27772,-2.54652 0.13886,-0.503675 0.32743,-0.958872 0.566737,-1.36087 0.239513,-0.399736 0.501826,-0.697791 0.78653,-0.891908 0.379605,-0.263546 0.81611,-0.392957 1.31198,-0.392957 0.897043,0 1.61394,0.452938 2.15233,1.36107 0.538595,0.905876 0.807688,2.16753 0.807688,3.7827 0,1.60346 -0.26786,2.85587 -0.801936,3.76175 -0.534076,0.903411 -1.2483,1.35635 -2.14103,1.35635 -0.905465,0 -1.62524,-0.450473 -2.15931,-1.34936 -0.534282,-0.901151 -0.800704,-2.14206 -0.800704,-3.72025zm1.26535 -0.066965c0,1.123 0.160017,1.97567 0.477588,2.55556 0.318803,0.580089 0.722646,0.868901 1.21276,0.868901 0.488885,0 0.891291,-0.286553 1.20578,-0.864177 0.313256,-0.575365 0.470603,-1.43728 0.470603,-2.58801 0,-1.13697 -0.153033,-1.98492 -0.457662,-2.54652 -0.306067,-0.559137 -0.712787,-0.838705 -1.21872,-0.838705 -0.507167,0 -0.915119,0.284293 -1.2255,0.850414 -0.308943,0.566121 -0.464852,1.41859 -0.464852,2.56254z"/>
   <path id="12345" class="fil0" d="M30.9432 70.823l4.26357 0 0 9.92437 -1.22838 0 0 -8.2445 -1.83085 0 0 4.23769c0,1.21317 -0.0254713,2.06112 -0.0749761,2.54179 -0.0497102,0.480669 -0.171521,0.854933 -0.362761,1.123 -0.192678,0.268065 -0.493199,0.401995 -0.904027,0.401995 -0.143174,0 -0.405282,-0.0207468 -0.783654,-0.066965l0 -1.55046 0.273406 0.00698408c0.258,0 0.430959,-0.0554618 0.518876,-0.168645 0.0891497,-0.113183 0.133108,-0.390492 0.133108,-0.834186l-0.00431369 -1.70535 0 -5.66573z"/>
   <path id="123456" class="fil0" d="M36.2239 75.8464c0,-1.01207 0.0922309,-1.86023 0.27772,-2.54652 0.13886,-0.503675 0.32743,-0.958872 0.566737,-1.36087 0.239513,-0.399736 0.501826,-0.697791 0.78653,-0.891908 0.379605,-0.263546 0.81611,-0.392957 1.31198,-0.392957 0.897043,0 1.61394,0.452938 2.15233,1.36107 0.538595,0.905876 0.807688,2.16753 0.807688,3.7827 0,1.60346 -0.26786,2.85587 -0.801936,3.76175 -0.534076,0.903411 -1.2483,1.35635 -2.14103,1.35635 -0.905465,0 -1.62524,-0.450473 -2.15931,-1.34936 -0.534282,-0.901151 -0.800704,-2.14206 -0.800704,-3.72025zm1.26535 -0.066965c0,1.123 0.160017,1.97567 0.477588,2.55556 0.318803,0.580089 0.722646,0.868901 1.21276,0.868901 0.488885,0 0.891291,-0.286553 1.20578,-0.864177 0.313256,-0.575365 0.470603,-1.43728 0.470603,-2.58801 0,-1.13697 -0.153033,-1.98492 -0.457662,-2.54652 -0.306067,-0.559137 -0.712787,-0.838705 -1.21872,-0.838705 -0.507167,0 -0.915119,0.284293 -1.2255,0.850414 -0.308943,0.566121 -0.464852,1.41859 -0.464852,2.56254z"/>
   <polygon id="1234567" class="fil0" points="43.1472,70.823 47.2705,70.823 47.2705,72.489 44.3772,72.489 44.3772,80.7474 43.1472,80.7474 "/>
   <polygon id="12345678" class="fil0" points="47.867,80.7474 47.867,70.823 49.0956,70.823 49.0956,80.7474 "/>
   <path id="123456789" class="fil0" d="M50.1668 70.823l1.22838 0 0 2.36842c0,0.767016 0.0184873,1.27767 0.0523806,1.52725 0.0340987,0.251838 0.137422,0.469166 0.308943,0.654038 0.171521,0.184873 0.423769,0.277309 0.755307,0.277309 0.263546,0 0.497307,-0.0462181 0.702721,-0.138654 0.204181,-0.0924363 0.381248,-0.228831 0.531406,-0.408979l0 -4.27939 1.22838 0 0 9.92437 -1.22838 0 0 -3.9953c-0.249373,0.182613 -0.494637,0.319008 -0.735382,0.411444 -0.240951,0.0924363 -0.477588,0.138654 -0.709911,0.138654 -0.606382,0 -1.11375,-0.23335 -1.52171,-0.700256 -0.408158,-0.46896 -0.612134,-1.27767 -0.612134,-2.4284l0 -3.35051z"/>
   <polygon id="12345678910" class="fil0" points="56.2438,80.7474 56.2438,70.823 57.4736,70.823 57.4736,74.728 59.8811,74.728 59.8811,70.823 61.1094,70.823 61.1094,80.7474 59.8811,80.7474 59.8811,76.4078 57.4736,76.4078 57.4736,80.7474 "/>
   <polygon id="1234567891011" class="fil0" points="62.3963,70.823 63.5469,70.823 63.5469,77.4292 66.0122,70.823 67.2365,70.823 67.2365,80.7474 66.0872,80.7474 66.0872,74.2682 63.6247,80.7474 62.3963,80.7474 "/>
   <path id="123456789101112" class="fil0" d="M68.5076 70.823l1.15052 0 0 6.60611 2.46538 -6.60611 1.22427 0 0 9.92437 -1.14929 0 0 -6.47917 -2.4625 6.47917 -1.22838 0 0 -9.92437zm3.15536 -2.47031l0.568175 0c-0.0326608,0.612339 -0.164331,1.09527 -0.395422,1.44427 -0.232323,0.351258 -0.531201,0.524627 -0.899713,0.524627 -0.368307,0 -0.66739,-0.173369 -0.898275,-0.524627 -0.230885,-0.348998 -0.362761,-0.831927 -0.396654,-1.44427l0.569613 0c0.0182818,0.321267 0.0877118,0.561602 0.206852,0.727987 0.118935,0.16392 0.291688,0.247113 0.518465,0.247113 0.226777,0 0.399736,-0.0831927 0.51867,-0.247113 0.118935,-0.166385 0.18857,-0.40672 0.20829,-0.727987z"/>
   <path id="12345678910111213" class="fil0" d="M76.3458 70.823l1.37442 0 1.41982 5.15281 1.21133 -5.15281 1.2824 0 -2.05455 7.54198c-0.223901,0.815699 -0.451911,1.43728 -0.684439,1.86475 -0.232323,0.425207 -0.532638,0.64007 -0.900946,0.64007 -0.362761,0 -0.646232,-0.0392341 -0.850414,-0.115443l0 -1.49048c0.174396,0.0184873 0.331538,0.0277309 0.471836,0.0277309 0.286347,0 0.490323,-0.0854522 0.613572,-0.254097 0.123454,-0.168645 0.240951,-0.533871 0.354339,-1.09301l-2.23737 -7.1215z"/>
   <polygon id="1234567891011121314" class="fil0" points="82.2558,80.7474 82.2558,70.823 83.4856,70.823 83.4856,74.728 85.893,74.728 85.893,70.823 87.1214,70.823 87.1214,80.7474 85.893,80.7474 85.893,76.4078 83.4856,76.4078 83.4856,80.7474 "/>
   <polygon id="123456789101112131415" class="fil0" points="88.3543,80.7474 88.3543,70.823 89.5829,70.823 89.5829,80.7474 "/>
   <path id="12345678910111213141516" class="fil0" d="M90.7574 70.823l2.43292 0c0.481901,0 0.841581,0.03225 1.07822,0.099215 0.236637,0.0647054 0.447802,0.2011 0.634935,0.408979 0.186927,0.208084 0.341398,0.482928 0.466084,0.829667 0.124686,0.344274 0.187132,0.732506 0.187132,1.15997 0,0.464441 -0.0766194,0.891908 -0.229653,1.28014 -0.154471,0.388027 -0.362761,0.679304 -0.624869,0.87342 0.369951,0.175629 0.656092,0.475944 0.854522,0.898892 0.199662,0.425002 0.298877,0.924158 0.298877,1.49726 0,0.450678 -0.0636783,0.889648 -0.192678,1.31711 -0.129,0.425207 -0.304629,0.767221 -0.527092,1.02132 -0.222463,0.254097 -0.497513,0.411239 -0.824737,0.471425 -0.203976,0.034715 -0.698613,0.0577213 -1.48206,0.066965l-2.0716 0 0 -9.92437zm1.22981 1.65214l0 2.29447 0.805017 0c0.47882,0 0.776259,-0.0115032 0.892524,-0.034715 0.209728,-0.0392341 0.375497,-0.157142 0.496075,-0.353517 0.120373,-0.196376 0.179943,-0.455197 0.179943,-0.776465 0,-0.307299 -0.0509427,-0.556877 -0.154471,-0.748529 -0.104967,-0.191857 -0.259232,-0.307299 -0.463414,-0.346739 -0.12181,-0.0230064 -0.471836,-0.0345095 -1.05008,-0.0345095l-0.705597 0zm0 3.94662l0 2.65272 1.13656 0c0.443489,0 0.723879,-0.0184873 0.843019,-0.0601863 0.182818,-0.0529968 0.331538,-0.187132 0.446365,-0.395011 0.114826,-0.210344 0.172753,-0.492172 0.172753,-0.84343 0,-0.298056 -0.0451911,-0.549893 -0.133108,-0.757978 -0.0893551,-0.207879 -0.216712,-0.360502 -0.383919,-0.455197 -0.167207,-0.0946958 -0.531406,-0.140914 -1.08972,-0.140914l-0.991944 0z"/>
   <polygon id="1234567891011121314151617" class="fil0" points="96.8944,80.7474 96.8944,70.823 101.406,70.823 101.406,72.5029 98.1228,72.5029 98.1228,74.7027 101.178,74.7027 101.178,76.3733 98.1228,76.3733 98.1228,79.0745 101.522,79.0745 101.522,80.7474 "/>
   <path id="123456789101112131415161718" class="fil0" d="M102.565 80.7474l0 -9.92437 1.97074 0c0.74668,0 1.23413,0.0507373 1.4609,0.150158 0.348588,0.147898 0.641919,0.471425 0.877118,0.970376 0.235199,0.499156 0.352901,1.14395 0.352901,1.93171 0,0.61008 -0.0681974,1.123 -0.204181,1.5367 -0.135984,0.415963 -0.307505,0.74175 -0.517232,0.979825 -0.208084,0.23561 -0.420688,0.392752 -0.636167,0.46896 -0.293126,0.0946958 -0.718333,0.143379 -1.27521,0.143379l-0.800498 0 0 3.74326 -1.22838 0zm1.22838 -8.2445l0 2.81438 0.671704 0c0.484572,0 0.80892,-0.0509427 0.972019,-0.154882 0.162893,-0.103939 0.290455,-0.2656 0.383919,-0.487447 0.0920255,-0.221847 0.13886,-0.478409 0.13886,-0.771946 0,-0.360296 -0.0651162,-0.658557 -0.195554,-0.894167 -0.129,-0.23335 -0.294769,-0.381248 -0.493199,-0.43897 -0.147282,-0.0462181 -0.442051,-0.066965 -0.884102,-0.066965l-0.593646 0z"/>
   <path id="12345678910111213141516171819" class="fil0" d="M111.918 77.0989l1.19017 0.614599c-0.182818,1.08376 -0.486009,1.88775 -0.911011,2.41464 -0.423564,0.524627 -0.963597,0.787968 -1.61681,0.787968 -0.807688,0 -1.4722,-0.450473 -1.9921,-1.34936 -0.519903,-0.901151 -0.780779,-2.13281 -0.780779,-3.69252 0,-1.65214 0.262108,-2.93454 0.785092,-3.84966 0.522779,-0.912654 1.20989,-1.37032 2.06297,-1.37032 0.743804,0 1.34895,0.358242 1.8136,1.07678 0.27772,0.422947 0.484572,1.03303 0.623431,1.82777l-1.21708 0.473685c-0.0708678,-0.515178 -0.221025,-0.921898 -0.450678,-1.21995 -0.22801,-0.298056 -0.505729,-0.445954 -0.831721,-0.445954 -0.450473,0 -0.817548,0.263341 -1.09814,0.792487 -0.28039,0.526887 -0.420688,1.38182 -0.420688,2.565 0,1.25467 0.137422,2.14884 0.415142,2.68045 0.276282,0.533666 0.636167,0.799471 1.07822,0.799471 0.327224,0 0.608025,-0.16885 0.843019,-0.5084 0.235199,-0.33729 0.403844,-0.871161 0.507373,-1.59668z"/>
   <polygon id="1234567891011121314151617181920" class="fil0" points="114.179,70.823 115.33,70.823 115.33,77.4292 117.795,70.823 119.02,70.823 119.02,80.7474 117.87,80.7474 117.87,74.2682 115.408,80.7474 114.179,80.7474 "/>
   <polygon id="123456789101112131415161718192021" class="fil0" points="121.644,80.7474 121.644,72.5029 119.839,72.5029 119.839,70.823 124.674,70.823 124.674,72.5029 122.874,72.5029 122.874,80.7474 "/>
   <polygon id="12345678910111213141516171819202122" class="fil0" points="125.468,80.7474 125.468,70.823 129.98,70.823 129.98,72.5029 126.696,72.5029 126.696,74.7027 129.751,74.7027 129.751,76.3733 126.696,76.3733 126.696,79.0745 130.096,79.0745 130.096,80.7474 "/>
   <polygon id="1234567891011121314151617181920212223" class="fil0" points="132.507,80.7474 132.507,72.5029 130.702,72.5029 130.702,70.823 135.538,70.823 135.538,72.5029 133.737,72.5029 133.737,80.7474 "/>
   <g>
    <polygon id="123456789101112131415161718192021222324" class="fil1 str0" points="2.80164,80.7474 2.80164,72.5029 0.996463,72.5029 0.996463,70.823 5.83232,70.823 5.83232,72.5029 4.03145,72.5029 4.03145,80.7474 "/>
   </g>
   <g>
    <polygon id="12345678910111213141516171819202122232425" class="fil1 str0" points="6.62604,80.7474 6.62604,70.823 11.1375,70.823 11.1375,72.5029 7.85441,72.5029 7.85441,74.7027 10.9093,74.7027 10.9093,76.3733 7.85441,76.3733 7.85441,79.0745 11.2536,79.0745 11.2536,80.7474 "/>
   </g>
   <g>
    <polygon id="1234567891011121314151617181920212223242526" class="fil1 str0" points="11.6772,80.7474 13.7572,75.5691 11.8727,70.823 13.3082,70.823 14.5293,74.0117 15.7238,70.823 17.148,70.823 15.2549,75.6431 17.3349,80.7474 15.8528,80.7474 14.5041,77.316 13.1508,80.7474 "/>
   </g>
   <g>
    <polygon id="123456789101112131415161718192021222324252627" class="fil1 str0" points="17.9698,80.7474 17.9698,70.823 19.1996,70.823 19.1996,74.728 21.6071,74.728 21.6071,70.823 22.8355,70.823 22.8355,80.7474 21.6071,80.7474 21.6071,76.4078 19.1996,76.4078 19.1996,80.7474 "/>
   </g>
   <g>
    <path id="12345678910111213141516171819202122232425262728" class="fil1 str0" d="M23.857 75.8464c0,-1.01207 0.0922309,-1.86023 0.27772,-2.54652 0.13886,-0.503675 0.32743,-0.958872 0.566737,-1.36087 0.239513,-0.399736 0.501826,-0.697791 0.78653,-0.891908 0.379605,-0.263546 0.81611,-0.392957 1.31198,-0.392957 0.897043,0 1.61394,0.452938 2.15233,1.36107 0.538595,0.905876 0.807688,2.16753 0.807688,3.7827 0,1.60346 -0.26786,2.85587 -0.801936,3.76175 -0.534076,0.903411 -1.2483,1.35635 -2.14103,1.35635 -0.905465,0 -1.62524,-0.450473 -2.15931,-1.34936 -0.534282,-0.901151 -0.800704,-2.14206 -0.800704,-3.72025zm1.26535 -0.066965c0,1.123 0.160017,1.97567 0.477588,2.55556 0.318803,0.580089 0.722646,0.868901 1.21276,0.868901 0.488885,0 0.891291,-0.286553 1.20578,-0.864177 0.313256,-0.575365 0.470603,-1.43728 0.470603,-2.58801 0,-1.13697 -0.153033,-1.98492 -0.457662,-2.54652 -0.306067,-0.559137 -0.712787,-0.838705 -1.21872,-0.838705 -0.507167,0 -0.915119,0.284293 -1.2255,0.850414 -0.308943,0.566121 -0.464852,1.41859 -0.464852,2.56254z"/>
   </g>
   <g>
    <path id="1234567891011121314151617181920212223242526272829" class="fil1 str0" d="M30.9432 70.823l4.26357 0 0 9.92437 -1.22838 0 0 -8.2445 -1.83085 0 0 4.23769c0,1.21317 -0.0254713,2.06112 -0.0749761,2.54179 -0.0497102,0.480669 -0.171521,0.854933 -0.362761,1.123 -0.192678,0.268065 -0.493199,0.401995 -0.904027,0.401995 -0.143174,0 -0.405282,-0.0207468 -0.783654,-0.066965l0 -1.55046 0.273406 0.00698408c0.258,0 0.430959,-0.0554618 0.518876,-0.168645 0.0891497,-0.113183 0.133108,-0.390492 0.133108,-0.834186l-0.00431369 -1.70535 0 -5.66573z"/>
   </g>
   <g>
    <path id="123456789101112131415161718192021222324252627282930" class="fil1 str0" d="M36.2239 75.8464c0,-1.01207 0.0922309,-1.86023 0.27772,-2.54652 0.13886,-0.503675 0.32743,-0.958872 0.566737,-1.36087 0.239513,-0.399736 0.501826,-0.697791 0.78653,-0.891908 0.379605,-0.263546 0.81611,-0.392957 1.31198,-0.392957 0.897043,0 1.61394,0.452938 2.15233,1.36107 0.538595,0.905876 0.807688,2.16753 0.807688,3.7827 0,1.60346 -0.26786,2.85587 -0.801936,3.76175 -0.534076,0.903411 -1.2483,1.35635 -2.14103,1.35635 -0.905465,0 -1.62524,-0.450473 -2.15931,-1.34936 -0.534282,-0.901151 -0.800704,-2.14206 -0.800704,-3.72025zm1.26535 -0.066965c0,1.123 0.160017,1.97567 0.477588,2.55556 0.318803,0.580089 0.722646,0.868901 1.21276,0.868901 0.488885,0 0.891291,-0.286553 1.20578,-0.864177 0.313256,-0.575365 0.470603,-1.43728 0.470603,-2.58801 0,-1.13697 -0.153033,-1.98492 -0.457662,-2.54652 -0.306067,-0.559137 -0.712787,-0.838705 -1.21872,-0.838705 -0.507167,0 -0.915119,0.284293 -1.2255,0.850414 -0.308943,0.566121 -0.464852,1.41859 -0.464852,2.56254z"/>
   </g>
   <g>
    <polygon id="12345678910111213141516171819202122232425262728293031" class="fil1 str0" points="43.1472,70.823 47.2705,70.823 47.2705,72.489 44.3772,72.489 44.3772,80.7474 43.1472,80.7474 "/>
   </g>
   <g>
    <polygon id="1234567891011121314151617181920212223242526272829303132" class="fil1 str0" points="47.867,80.7474 47.867,70.823 49.0956,70.823 49.0956,80.7474 "/>
   </g>
   <g>
    <path id="123456789101112131415161718192021222324252627282930313233" class="fil1 str0" d="M50.1668 70.823l1.22838 0 0 2.36842c0,0.767016 0.0184873,1.27767 0.0523806,1.52725 0.0340987,0.251838 0.137422,0.469166 0.308943,0.654038 0.171521,0.184873 0.423769,0.277309 0.755307,0.277309 0.263546,0 0.497307,-0.0462181 0.702721,-0.138654 0.204181,-0.0924363 0.381248,-0.228831 0.531406,-0.408979l0 -4.27939 1.22838 0 0 9.92437 -1.22838 0 0 -3.9953c-0.249373,0.182613 -0.494637,0.319008 -0.735382,0.411444 -0.240951,0.0924363 -0.477588,0.138654 -0.709911,0.138654 -0.606382,0 -1.11375,-0.23335 -1.52171,-0.700256 -0.408158,-0.46896 -0.612134,-1.27767 -0.612134,-2.4284l0 -3.35051z"/>
   </g>
   <g>
    <polygon id="12345678910111213141516171819202122232425262728293031323334" class="fil1 str0" points="56.2438,80.7474 56.2438,70.823 57.4736,70.823 57.4736,74.728 59.8811,74.728 59.8811,70.823 61.1094,70.823 61.1094,80.7474 59.8811,80.7474 59.8811,76.4078 57.4736,76.4078 57.4736,80.7474 "/>
   </g>
   <g>
    <polygon id="1234567891011121314151617181920212223242526272829303132333435" class="fil1 str0" points="62.3963,70.823 63.5469,70.823 63.5469,77.4292 66.0122,70.823 67.2365,70.823 67.2365,80.7474 66.0872,80.7474 66.0872,74.2682 63.6247,80.7474 62.3963,80.7474 "/>
   </g>
   <g>
    <path id="123456789101112131415161718192021222324252627282930313233343536" class="fil1 str0" d="M68.5076 70.823l1.15052 0 0 6.60611 2.46538 -6.60611 1.22427 0 0 9.92437 -1.14929 0 0 -6.47917 -2.4625 6.47917 -1.22838 0 0 -9.92437zm3.15536 -2.47031l0.568175 0c-0.0326608,0.612339 -0.164331,1.09527 -0.395422,1.44427 -0.232323,0.351258 -0.531201,0.524627 -0.899713,0.524627 -0.368307,0 -0.66739,-0.173369 -0.898275,-0.524627 -0.230885,-0.348998 -0.362761,-0.831927 -0.396654,-1.44427l0.569613 0c0.0182818,0.321267 0.0877118,0.561602 0.206852,0.727987 0.118935,0.16392 0.291688,0.247113 0.518465,0.247113 0.226777,0 0.399736,-0.0831927 0.51867,-0.247113 0.118935,-0.166385 0.18857,-0.40672 0.20829,-0.727987z"/>
   </g>
   <g>
    <path id="12345678910111213141516171819202122232425262728293031323334353637" class="fil1 str0" d="M76.3458 70.823l1.37442 0 1.41982 5.15281 1.21133 -5.15281 1.2824 0 -2.05455 7.54198c-0.223901,0.815699 -0.451911,1.43728 -0.684439,1.86475 -0.232323,0.425207 -0.532638,0.64007 -0.900946,0.64007 -0.362761,0 -0.646232,-0.0392341 -0.850414,-0.115443l0 -1.49048c0.174396,0.0184873 0.331538,0.0277309 0.471836,0.0277309 0.286347,0 0.490323,-0.0854522 0.613572,-0.254097 0.123454,-0.168645 0.240951,-0.533871 0.354339,-1.09301l-2.23737 -7.1215z"/>
   </g>
   <g>
    <polygon id="1234567891011121314151617181920212223242526272829303132333435363738" class="fil1 str0" points="82.2558,80.7474 82.2558,70.823 83.4856,70.823 83.4856,74.728 85.893,74.728 85.893,70.823 87.1214,70.823 87.1214,80.7474 85.893,80.7474 85.893,76.4078 83.4856,76.4078 83.4856,80.7474 "/>
   </g>
   <g>
    <polygon id="123456789101112131415161718192021222324252627282930313233343536373839" class="fil1 str0" points="88.3543,80.7474 88.3543,70.823 89.5829,70.823 89.5829,80.7474 "/>
   </g>
   <g>
    <path id="12345678910111213141516171819202122232425262728293031323334353637383940" class="fil1 str0" d="M90.7574 70.823l2.43292 0c0.481901,0 0.841581,0.03225 1.07822,0.099215 0.236637,0.0647054 0.447802,0.2011 0.634935,0.408979 0.186927,0.208084 0.341398,0.482928 0.466084,0.829667 0.124686,0.344274 0.187132,0.732506 0.187132,1.15997 0,0.464441 -0.0766194,0.891908 -0.229653,1.28014 -0.154471,0.388027 -0.362761,0.679304 -0.624869,0.87342 0.369951,0.175629 0.656092,0.475944 0.854522,0.898892 0.199662,0.425002 0.298877,0.924158 0.298877,1.49726 0,0.450678 -0.0636783,0.889648 -0.192678,1.31711 -0.129,0.425207 -0.304629,0.767221 -0.527092,1.02132 -0.222463,0.254097 -0.497513,0.411239 -0.824737,0.471425 -0.203976,0.034715 -0.698613,0.0577213 -1.48206,0.066965l-2.0716 0 0 -9.92437zm1.22981 1.65214l0 2.29447 0.805017 0c0.47882,0 0.776259,-0.0115032 0.892524,-0.034715 0.209728,-0.0392341 0.375497,-0.157142 0.496075,-0.353517 0.120373,-0.196376 0.179943,-0.455197 0.179943,-0.776465 0,-0.307299 -0.0509427,-0.556877 -0.154471,-0.748529 -0.104967,-0.191857 -0.259232,-0.307299 -0.463414,-0.346739 -0.12181,-0.0230064 -0.471836,-0.0345095 -1.05008,-0.0345095l-0.705597 0zm0 3.94662l0 2.65272 1.13656 0c0.443489,0 0.723879,-0.0184873 0.843019,-0.0601863 0.182818,-0.0529968 0.331538,-0.187132 0.446365,-0.395011 0.114826,-0.210344 0.172753,-0.492172 0.172753,-0.84343 0,-0.298056 -0.0451911,-0.549893 -0.133108,-0.757978 -0.0893551,-0.207879 -0.216712,-0.360502 -0.383919,-0.455197 -0.167207,-0.0946958 -0.531406,-0.140914 -1.08972,-0.140914l-0.991944 0z"/>
   </g>
   <g>
    <polygon id="1234567891011121314151617181920212223242526272829303132333435363738394041" class="fil1 str0" points="96.8944,80.7474 96.8944,70.823 101.406,70.823 101.406,72.5029 98.1228,72.5029 98.1228,74.7027 101.178,74.7027 101.178,76.3733 98.1228,76.3733 98.1228,79.0745 101.522,79.0745 101.522,80.7474 "/>
   </g>
   <g>
    <path id="123456789101112131415161718192021222324252627282930313233343536373839404142" class="fil1 str0" d="M102.565 80.7474l0 -9.92437 1.97074 0c0.74668,0 1.23413,0.0507373 1.4609,0.150158 0.348588,0.147898 0.641919,0.471425 0.877118,0.970376 0.235199,0.499156 0.352901,1.14395 0.352901,1.93171 0,0.61008 -0.0681974,1.123 -0.204181,1.5367 -0.135984,0.415963 -0.307505,0.74175 -0.517232,0.979825 -0.208084,0.23561 -0.420688,0.392752 -0.636167,0.46896 -0.293126,0.0946958 -0.718333,0.143379 -1.27521,0.143379l-0.800498 0 0 3.74326 -1.22838 0zm1.22838 -8.2445l0 2.81438 0.671704 0c0.484572,0 0.80892,-0.0509427 0.972019,-0.154882 0.162893,-0.103939 0.290455,-0.2656 0.383919,-0.487447 0.0920255,-0.221847 0.13886,-0.478409 0.13886,-0.771946 0,-0.360296 -0.0651162,-0.658557 -0.195554,-0.894167 -0.129,-0.23335 -0.294769,-0.381248 -0.493199,-0.43897 -0.147282,-0.0462181 -0.442051,-0.066965 -0.884102,-0.066965l-0.593646 0z"/>
   </g>
   <g>
    <path id="12345678910111213141516171819202122232425262728293031323334353637383940414243" class="fil1 str0" d="M111.918 77.0989l1.19017 0.614599c-0.182818,1.08376 -0.486009,1.88775 -0.911011,2.41464 -0.423564,0.524627 -0.963597,0.787968 -1.61681,0.787968 -0.807688,0 -1.4722,-0.450473 -1.9921,-1.34936 -0.519903,-0.901151 -0.780779,-2.13281 -0.780779,-3.69252 0,-1.65214 0.262108,-2.93454 0.785092,-3.84966 0.522779,-0.912654 1.20989,-1.37032 2.06297,-1.37032 0.743804,0 1.34895,0.358242 1.8136,1.07678 0.27772,0.422947 0.484572,1.03303 0.623431,1.82777l-1.21708 0.473685c-0.0708678,-0.515178 -0.221025,-0.921898 -0.450678,-1.21995 -0.22801,-0.298056 -0.505729,-0.445954 -0.831721,-0.445954 -0.450473,0 -0.817548,0.263341 -1.09814,0.792487 -0.28039,0.526887 -0.420688,1.38182 -0.420688,2.565 0,1.25467 0.137422,2.14884 0.415142,2.68045 0.276282,0.533666 0.636167,0.799471 1.07822,0.799471 0.327224,0 0.608025,-0.16885 0.843019,-0.5084 0.235199,-0.33729 0.403844,-0.871161 0.507373,-1.59668z"/>
   </g>
   <g>
    <polygon id="1234567891011121314151617181920212223242526272829303132333435363738394041424344" class="fil1 str0" points="114.179,70.823 115.33,70.823 115.33,77.4292 117.795,70.823 119.02,70.823 119.02,80.7474 117.87,80.7474 117.87,74.2682 115.408,80.7474 114.179,80.7474 "/>
   </g>
   <g>
    <polygon id="123456789101112131415161718192021222324252627282930313233343536373839404142434445" class="fil1 str0" points="121.644,80.7474 121.644,72.5029 119.839,72.5029 119.839,70.823 124.674,70.823 124.674,72.5029 122.874,72.5029 122.874,80.7474 "/>
   </g>
   <g>
    <polygon id="12345678910111213141516171819202122232425262728293031323334353637383940414243444546" class="fil1 str0" points="125.468,80.7474 125.468,70.823 129.98,70.823 129.98,72.5029 126.696,72.5029 126.696,74.7027 129.751,74.7027 129.751,76.3733 126.696,76.3733 126.696,79.0745 130.096,79.0745 130.096,80.7474 "/>
   </g>
   <g>
    <polygon id="1234567891011121314151617181920212223242526272829303132333435363738394041424344454647" class="fil1 str0" points="132.507,80.7474 132.507,72.5029 130.702,72.5029 130.702,70.823 135.538,70.823 135.538,72.5029 133.737,72.5029 133.737,80.7474 "/>
   </g>
   <polyline class="fil1 str1" points="86.476,21.9298 86.476,2.60527 67.0685,2.60527 67.0685,0.803785 55.6228,0.803785 55.6226,33.0659 45.0066,33.0659 45.0066,29.1355 10.6698,29.1355 10.6698,44.8573 10.6698,46.0035 "/>
   <g>
    <path class="fil0" d="M61.0232 15.7166c-0.0195143,-0.0232118 -0.0591592,-0.134546 -0.0877118,-0.246908 -0.0747707,-0.293331 -0.281006,-0.692245 -0.485599,-0.939564 -0.366664,-0.442873 -0.495048,-0.627129 -0.708678,-1.01762l-0.0889443 -0.162688 -0.323938 0 -0.324143 0 0 -0.33729 0 -0.337084 0.264984 0 0.264984 0 0 -0.108459 0 -0.108253 0.397476 0 0.397271 0 0 0.108253 0 0.108459 0.120578 0 0.120578 0 0 0.337084 0 0.33729 -0.0965446 0c-0.0529968,0 -0.0963392,0.00595701 -0.0963392,0.0129411 0,0.00718949 0.0221847,0.0564888 0.0492994,0.109486 0.0581322,0.11421 0.207468,0.269298 0.310586,0.3225l0.0737436 0.0380016 0 -0.241361 0 -0.241567 -0.108459 0 -0.108459 0 0 -0.33729 0 -0.337084 0.0879172 0 0.0875064 0 -0.0139682 -0.135368c-0.0267038,-0.259232 -0.173575,-0.470603 -0.35208,-0.50614l-0.0743599 -0.0147898 0 0.195554 0 0.19576 -0.397271 0 -0.397476 0 0 -0.276693 0 -0.276282 -0.0663487 -0.014379c-0.450884,-0.0961337 -0.749145,-0.271557 -0.948807,-0.558726 -0.0390287,-0.0562834 -0.0866847,-0.102502 -0.105994,-0.102502 -0.0291688,0 -0.0351258,-0.0599809 -0.0351258,-0.349204 0,-0.320651 0.00369745,-0.349204 0.0437532,-0.349204 0.0275255,0 0.0589538,-0.0351258 0.0860685,-0.0963392 0.0540239,-0.122838 0.25081,-0.338522 0.387616,-0.425207 0.0583376,-0.0369745 0.112361,-0.0889443 0.120167,-0.116059 0.0316338,-0.109896 0.0431369,-1.44858 0.0145844,-1.71089 -0.0706624,-0.652189 -0.246497,-1.18092 -0.521546,-1.56875 -0.195349,-0.275666 -0.17871,-0.554823 -0.17871,2.96659l0 3.14263 0.324965 0 0.325376 0 0 0.337084 0 0.33729 -0.722646 0 -0.722441 0 0 -4.26296 0 -4.26275 0.0645 0.0246497c0.144611,0.0550509 0.460949,0.232734 0.632264,0.355572 0.62261,0.446159 1.05542,1.03138 1.28836,1.74273 0.185283,0.565505 0.206646,0.802347 0.206646,2.28256l0 1.20516 -0.102296 0.0162277c-0.194938,0.0312229 -0.301959,0.220204 -0.226777,0.400352 0.0412882,0.0988041 0.125508,0.150568 0.281212,0.172753l0.108048 0.0156115 0.123865 -0.211987c0.345301,-0.591181 0.56571,-1.19222 0.660817,-1.80148 0.0328662,-0.210344 0.0306067,-1.20578 -0.00369745,-1.78258 -0.014379,-0.238486 -0.0338933,-0.56838 -0.0439586,-0.733328 -0.0517643,-0.870544 0.211782,-2.2953 0.511275,-2.76528 0.0359474,-0.0564888 0.0811385,-0.102296 0.100653,-0.102296 0.0195143,0 0.0645,0.0458073 0.100242,0.102296 0.190008,0.301137 0.35968,0.94285 0.46629,1.7643 0.056078,0.430753 0.0640892,0.854317 0.0250605,1.32697 -0.014379,0.173369 -0.0363583,0.628567 -0.0490939,1.01166 -0.0260876,0.78879 -0.00677866,1.13368 0.0850414,1.52356 0.0324554,0.137011 0.0589538,0.256973 0.0589538,0.266627 0,0.00985987 -0.155088,0.085863 -0.344479,0.16885l-0.344685 0.150979 -0.209111 0.461565c-0.224312,0.494021 -0.282033,0.64233 -0.281828,0.723263 0,0.0353312 0.0603917,0.0990095 0.193911,0.204592 0.10661,0.0842197 0.216301,0.183229 0.243416,0.219998l0.0492994 0.0667595 0.0801115 -0.0875064c0.0439586,-0.0482723 0.151185,-0.141736 0.23828,-0.208084 0.0868901,-0.0663487 0.164537,-0.144201 0.172548,-0.173369 0.0197197,-0.0723057 -0.0158169,-0.173164 -0.219382,-0.621583 -0.0963392,-0.211987 -0.19083,-0.42418 -0.210755,-0.471631l-0.035742 -0.085863 0.326403 -0.142763c0.179326,-0.0786736 0.336468,-0.142763 0.348793,-0.142763 0.0123248,0 0.0575159,0.0975716 0.100037,0.216712 0.10435,0.29025 0.225545,0.548455 0.405076,0.862944l0.148925 0.261081 0.109075 -0.0160223c0.23561,-0.0349204 0.354339,-0.190419 0.291072,-0.381865 -0.0361529,-0.109075 -0.115853,-0.173164 -0.241156,-0.193295l-0.0971608 -0.015406 0 -1.23906c0,-0.961132 0.00801115,-1.29986 0.0359474,-1.51123 0.109896,-0.832132 0.451089,-1.54471 1.00098,-2.0907 0.318597,-0.316543 0.708678,-0.58543 1.06466,-0.733739l0.0903822 -0.0377962 0 4.26398 0 4.26357 -0.722646 0 -0.722646 0 0 -0.336468 0 -0.336468 0.319213 -0.00677866 0.319008 -0.00677866 0.00636783 -3.13729c0.00390287,-2.0566 -0.00225955,-3.13749 -0.017871,-3.13749 -0.0412882,0 -0.231091,0.261287 -0.322911,0.444927 -0.176245,0.35208 -0.300315,0.807688 -0.353723,1.3015 -0.0283471,0.262314 -0.0170494,1.601 0.0145844,1.71089 0.00780573,0.0271146 0.0618296,0.0790844 0.120167,0.116059 0.136806,0.0866847 0.333592,0.302369 0.387822,0.425207 0.0269092,0.0612134 0.0583376,0.0963392 0.0860685,0.0963392 0.0398503,0 0.0433424,0.0285525 0.0433424,0.349204 0,0.289223 -0.00595701,0.349204 -0.0349204,0.349204 -0.0191035,0 -0.066965,0.0462181 -0.106199,0.102502 -0.199662,0.287169 -0.497718,0.462592 -0.948602,0.558726l-0.0663487 0.014379 0 0.276282 0 0.276693 -0.397476 0 -0.397476 0 0 -0.192678c0,-0.160428 -0.00636783,-0.192678 -0.0384124,-0.192678 -0.0712787,0 -0.204798,0.0784681 -0.261697,0.153855 -0.0649108,0.0860685 -0.133519,0.299699 -0.133519,0.41658 0,0.0751815 0.00492994,0.079906 0.0844251,0.079906l0.0842197 0 0 0.337084 0 0.33729 -0.108253 0 -0.108459 0 0 0.241567 0 0.241361 0.0735382 -0.0380016c0.103118,-0.0532022 0.252659,-0.20829 0.310791,-0.3225 0.0271146,-0.0529968 0.0492994,-0.102296 0.0492994,-0.109486 0,-0.00698408 -0.0433424,-0.0129411 -0.0965446,-0.0129411l-0.0963392 0 0 -0.33729 0 -0.337084 0.120578 0 0.120373 0 0 -0.108459 0 -0.108253 0.397476 0 0.397476 0 0 0.108253 0 0.108459 0.264779 0 0.265189 0 0 0.337084 0 0.33729 -0.323938 0 -0.324143 0 -0.0891497 0.162688c-0.180559,0.329279 -0.34982,0.580089 -0.566326,0.837678 -0.376318,0.448419 -0.533871,0.734355 -0.637605,1.1573 -0.0490939,0.199662 -0.0881226,0.251221 -0.190624,0.251221 -0.0435478,0 -0.0922309,-0.0184873 -0.112772,-0.0421099z"/>
    <path class="fil0" d="M61.0195 15.6684c-0.0182818,-0.0365637 -0.0575159,-0.147487 -0.0873009,-0.246908 -0.10435,-0.350436 -0.295796,-0.685056 -0.62528,-1.09239 -0.20603,-0.254919 -0.361118,-0.483339 -0.521752,-0.768248l-0.118524 -0.210549 -0.331127 -0.000205414 -0.331333 -0.000205414 0 -0.33729 0 -0.337084 0.264984 0 0.264984 0 0 -0.108459 0 -0.108253 0.397476 0 0.397271 0 0 0.108253 0 0.108459 0.120578 0 0.120578 0 0 0.337084 0 0.33729 -0.0965446 0c-0.0529968,0 -0.0963392,0.0115032 -0.0963392,0.0252659 0,0.116059 0.313462,0.45643 0.420482,0.45643 0.00718949,0 0.0131465,-0.108253 0.0131465,-0.240745l0 -0.240951 -0.108459 0 -0.108459 0 0 -0.33729 0 -0.337084 0.0975716 0 0.0975716 0 -0.0156115 -0.0903822c-0.0564888,-0.331744 -0.168029,-0.501826 -0.366048,-0.558521l-0.0784681 -0.0221847 0 0.202949 -0.0240334 0.251427 -0.373237 0.0721003 -0.397476 -0.0240334 0 -0.380016 0 -0.283882 -0.174602 -0.0445748c-0.361939,-0.0926417 -0.55318,-0.207879 -0.796801,-0.480052l-0.162482 -0.181586 0 -0.305245c0,-0.27772 0.00472452,-0.309764 0.0507373,-0.356599 0.0277309,-0.0283471 0.0985987,-0.11914 0.157347,-0.202127 0.0587484,-0.0827818 0.17111,-0.200484 0.249578,-0.261697 0.078879,-0.061008 0.15139,-0.128589 0.16125,-0.150568 0.0100653,-0.0215685 0.0225955,-0.396038 0.0279363,-0.832132 0.00801115,-0.653627 0.00267038,-0.839938 -0.0301959,-1.05994 -0.0854522,-0.568997 -0.221025,-0.969349 -0.454581,-1.34176 -0.151596,-0.241772 -0.195143,-0.262724 -0.217123,-0.103323 -0.00842197,0.0622404 -0.015406,1.47179 -0.015406,3.13256l0 3.01959 0.324965 0 0.421715 0 0 0.361323 -0.0963392 0.313051 -0.722646 0 -0.722441 0 0 -4.25145c0,-2.33823 0.00554618,-4.25125 0.0125303,-4.25125 0.0359474,0 0.43404,0.215685 0.601452,0.326197 0.443283,0.292099 0.8461,0.727165 1.10266,1.1912 0.168029,0.304218 0.336468,0.78879 0.401584,1.15607 0.0283471,0.160017 0.0706624,1.58169 0.0725111,2.43909l0.00102707 0.475533 -0.0663487 0.000205414c-0.0827818,0 -0.207263,0.0745653 -0.26067,0.155909 -0.0581322,0.0885334 -0.034715,0.263957 0.0460127,0.344685 0.0603917,0.0603917 0.322911,0.137422 0.356599,0.10435 0.00821656,-0.00821656 0.0885334,-0.150363 0.178299,-0.315927 0.278131,-0.512508 0.451911,-0.975716 0.564067,-1.50301 0.0456019,-0.213014 0.0509427,-0.316132 0.0505318,-0.975511 -0.000410828,-0.405487 -0.0166385,-1.02563 -0.0365637,-1.37812 -0.0464236,-0.829256 -0.00924363,-1.37155 0.143379,-2.09296 0.112978,-0.534693 0.333798,-1.09609 0.431369,-1.09609 0.142763,0 0.3946,0.770097 0.516411,1.57778 0.09675,0.641097 0.10168,0.904849 0.0410828,2.11967 -0.0577213,1.14806 -0.0484777,1.4455 0.0616242,1.99601 0.0275255,0.137422 0.112772,0.379194 0.10168,0.390492 -0.0112978,0.0112978 -0.209317,0.107432 -0.381454,0.184256l-0.336879 -0.00492994 -0.0885334 0.180353c-0.174191,0.355161 -0.388438,0.87835 -0.399325,0.975511 -0.0110924,0.0981879 -0.0102707,0.099215 0.197403,0.275666 0.114621,0.0971608 0.223285,0.198224 0.241567,0.224107 0.0314283,0.0449857 0.0451911,0.0365637 0.276693,-0.165974 0.13393,-0.117497 0.250194,-0.238896 0.258,-0.269914 0.020336,-0.0805223 -0.0158169,-0.184462 -0.245675,-0.705597 -0.112361,-0.254303 -0.104967,-0.367896 -0.10168,-0.370567 0.0456019,-0.0340987 0.540444,-0.363583 0.552564,-0.352285 0.00924363,0.00862739 0.0803169,0.167207 0.158374,0.352696 0.0776465,0.185489 0.21856,0.477998 0.313051,0.650546 0.161661,0.294153 0.17604,0.31264 0.239307,0.306478 0.117908,-0.0115032 0.270119,-0.0794952 0.32024,-0.143174 0.127767,-0.162277 0.00513535,-0.428288 -0.210549,-0.457252l-0.102296 -0.0135573 0.00184873 -0.508605c0.00102707,-0.279979 0.0108869,-0.904438 0.0219793,-1.38819 0.0170494,-0.759621 0.0269092,-0.911833 0.0716895,-1.11992 0.210549,-0.977565 0.71936,-1.73472 1.52376,-2.26715 0.188775,-0.125097 0.515795,-0.298056 0.562834,-0.298056 0.00534076,0 0.00985987,1.91302 0.00985987,4.25125l0 4.25145 -0.722646 0 -0.722646 0 0 -0.322705c0,-0.271763 0.00595701,-0.32476 0.038207,-0.337084 0.0207468,-0.00801115 0.167207,-0.0145844 0.324965,-0.0145844l0.287169 0 0 -3.14345c0,-2.72934 -0.00451911,-3.14345 -0.0349204,-3.14345 -0.0429315,0 -0.222874,0.250194 -0.320857,0.445748 -0.155498,0.310586 -0.286553,0.770097 -0.343452,1.20434 -0.0306067,0.235404 -0.0225955,1.75115 0.00985987,1.82182 0.0100653,0.0219793 0.0825764,0.0895605 0.161045,0.150568 0.0786736,0.0612134 0.191035,0.178916 0.249783,0.261697 0.0587484,0.0829872 0.129616,0.17378 0.157347,0.202127 0.0462181,0.0468344 0.0507373,0.078879 0.0507373,0.356599l0 0.305245 -0.162482 0.181586c-0.243621,0.272174 -0.434861,0.387411 -0.796801,0.480052l-0.174602 0.0445748 0 0.283882 0 0.404049 -0.445543 0.0242388 -0.349409 -0.144611 0 -0.192678c0,-0.17871 -0.00349204,-0.192678 -0.0497102,-0.192678 -0.187132,0 -0.383919,0.278131 -0.383919,0.542909 0,0.106815 0.000821656,0.107432 0.0844251,0.107432l0.0842197 0 0 0.337084 0 0.33729 -0.108253 0 -0.108459 0 0 0.240951c0,0.132492 0.00595701,0.240745 0.0133519,0.240745 0.10661,0 0.420277,-0.340371 0.420277,-0.45643 0,-0.0137627 -0.0433424,-0.0252659 -0.0965446,-0.0252659l-0.0963392 0 0 -0.33729 0 -0.337084 0.120578 0 0.120373 0 0 -0.108459 0 -0.011914 0.397476 0.0480669 0.397476 0.0240334 0 -0.0601863 0 0.108459 0.264779 0 0.409595 0.0240334 0.0963392 0.33729 -0.120373 0.289017 -0.4515 0.0242388 -0.331333 0.000205414 -0.119346 0.210549c-0.159812,0.282239 -0.340166,0.544552 -0.566532,0.823915 -0.313256,0.387205 -0.457046,0.640481 -0.567764,1.00078 -0.0979825,0.319008 -0.11647,0.348998 -0.215685,0.348998 -0.0665541,0 -0.0897659,-0.0131465 -0.11647,-0.0663487l0 0.000205414z"/>
    <path class="fil0" d="M61.0195 15.6684c-0.0182818,-0.0365637 -0.0573105,-0.146666 -0.0868901,-0.245059 -0.103323,-0.345506 -0.256151,-0.614188 -0.603095,-1.06178 -0.27279,-0.351669 -0.381865,-0.512097 -0.544347,-0.800704l-0.118524 -0.210549 -0.331127 -0.000205414 -0.331333 -0.000205414 0 -0.33729 0 -0.337084 0.264984 0 0.264984 0 0 -0.108459 0 -0.108253 0.397476 0 0.397271 0 0 0.108253 0 0.108459 0.120578 0 0.120578 0 0 0.337084 0 0.33729 -0.0965446 0c-0.116675,0 -0.120783,0.0250605 -0.0273201,0.170083 0.0879172,0.136189 0.28265,0.311613 0.345917,0.311613 0.0102707,0 0.0186927,-0.108253 0.0186927,-0.240745l0 -0.240951 -0.108459 0 -0.108459 0 0 -0.33729 0 -0.337084 0.0975716 0 0.0975716 0 -0.0156115 -0.0903822c-0.0564888,-0.331744 -0.168029,-0.501826 -0.366048,-0.558521l-0.0784681 -0.0221847 0 0.202949 0 0.203154 -0.397271 0 -0.397476 0 0 -0.283677 0 -0.283882 -0.174602 -0.0445748c-0.361939,-0.0926417 -0.55318,-0.207879 -0.796801,-0.480052l-0.162482 -0.181586 0 -0.308326c0,-0.225545 0.00842197,-0.314694 0.0316338,-0.332565 0.0172548,-0.0133519 0.0833981,-0.0975716 0.146871,-0.187338 0.0634729,-0.0895605 0.182408,-0.218355 0.264368,-0.286347 0.0819602,-0.0677866 0.159607,-0.140914 0.172959,-0.162277 0.0139682,-0.0225955 0.0273201,-0.36954 0.0324554,-0.835624 0.00760032,-0.714224 0.00349204,-0.829462 -0.0408774,-1.10821 -0.0573105,-0.359064 -0.141736,-0.668006 -0.252659,-0.925185 -0.0957229,-0.221642 -0.324965,-0.583376 -0.361939,-0.571256 -0.0147898,0.00513535 -0.0338933,0.0408774 -0.0423153,0.0794952 -0.00842197,0.0386178 -0.0164331,1.44427 -0.0182818,3.12332l-0.00267038 3.05307 0.324965 0 0.325376 0 0 0.337084 0 0.33729 -0.722646 0 -0.722441 0 0 -4.25145c0,-2.33823 0.00554618,-4.25125 0.0125303,-4.25125 0.00677866,0 0.10168,0.0447802 0.210549,0.0994204 1.01639,0.510454 1.69261,1.42927 1.89515,2.57404 0.0285525,0.162277 0.0706624,1.57203 0.0727165,2.42697l0.000821656 0.487653 -0.0686083 0c-0.0377962,0 -0.105583,0.0248551 -0.150158,0.0550509 -0.268681,0.18097 -0.13167,0.537158 0.209933,0.545374 0.0412882,0.00102707 0.0864793,-0.0117086 0.100447,-0.0281417 0.0507373,-0.0616242 0.347971,-0.637605 0.431369,-0.83624 0.117497,-0.281006 0.213014,-0.587073 0.284293,-0.912038 0.0566943,-0.258411 0.0597755,-0.313256 0.0597755,-1.02378 0,-0.412882 -0.0117086,-0.924158 -0.0258822,-1.13614 -0.0608025,-0.903411 -0.0281417,-1.50568 0.12181,-2.25257 0.121605,-0.604123 0.336879,-1.16798 0.446159,-1.16798 0.140709,0 0.392752,0.773794 0.513946,1.57778 0.09675,0.641097 0.10168,0.904849 0.0410828,2.11967 -0.0577213,1.14642 -0.0484777,1.4457 0.061008,1.99313 0.0271146,0.135779 0.0435478,0.256151 0.0363583,0.26786 -0.00718949,0.0115032 -0.155293,0.0842197 -0.329484,0.161866 -0.174191,0.0774411 -0.330922,0.162688 -0.348177,0.189803 -0.0766194,0.117497 -0.452116,1.01721 -0.462181,1.10657l-0.0110924 0.0985987 0.242799 0.21096c0.133314,0.115648 0.249989,0.210549 0.259027,0.210549 0.0201306,0 0.390081,-0.327019 0.447802,-0.395833 0.022801,-0.0273201 0.0419045,-0.0768248 0.0421099,-0.109896 0.000410828,-0.0330717 -0.101885,-0.298261 -0.227599,-0.588922 -0.125303,-0.290866 -0.225545,-0.530379 -0.222669,-0.532433 0.0505318,-0.0355366 0.636373,-0.266011 0.648492,-0.255124 0.00903822,0.00862739 0.0809331,0.167207 0.159196,0.352696 0.127151,0.300521 0.401379,0.84117 0.467317,0.921487 0.062035,0.0751815 0.341193,-0.00821656 0.417607,-0.125097 0.0299904,-0.0458073 0.0377962,-0.0930525 0.0283471,-0.175834 -0.0158169,-0.139271 -0.11421,-0.238896 -0.258411,-0.262108l-0.0963392 -0.015406 0.00184873 -0.520724c0.00102707,-0.286347 0.0108869,-0.911011 0.0219793,-1.38798 0.0170494,-0.74668 0.0271146,-0.900535 0.0716895,-1.108 0.211166,-0.980646 0.716073,-1.73123 1.52623,-2.26859 0.196992,-0.130643 0.509221,-0.296618 0.557699,-0.296618 0.00677866,0 0.0125303,1.91302 0.0125303,4.25125l0 4.25145 -0.722646 0 -0.722646 0 0 -0.322705c0,-0.271763 0.00595701,-0.32476 0.038207,-0.337084 0.0207468,-0.00801115 0.167207,-0.0145844 0.324965,-0.0145844l0.287169 0 -0.00164331 -3.10134c-0.00102707,-1.70555 -0.00985987,-3.12168 -0.0197197,-3.14715 -0.0170494,-0.0435478 -0.0207468,-0.0429315 -0.072922,0.0121194 -0.279363,0.29518 -0.521957,0.941823 -0.604944,1.61394 -0.0340987,0.277103 -0.0234172,1.74684 0.0131465,1.80682 0.0129411,0.0213631 0.090793,0.0944904 0.172753,0.162277 0.0819602,0.067992 0.200895,0.196787 0.264368,0.286347 0.0636783,0.0897659 0.129616,0.173986 0.146871,0.187338 0.0232118,0.017871 0.0316338,0.107021 0.0316338,0.332565l0 0.308326 -0.162482 0.181586c-0.243621,0.272174 -0.434861,0.387411 -0.796801,0.480052l-0.174602 0.0445748 0 0.283882 0 0.283677 -0.397476 0 -0.397476 0 0 -0.192678c0,-0.17871 -0.00349204,-0.192678 -0.0497102,-0.192678 -0.187132,0 -0.383919,0.278131 -0.383919,0.542909 0,0.106815 0.000821656,0.107432 0.0844251,0.107432l0.0842197 0 0 0.337084 0 0.33729 -0.108253 0 -0.108459 0 0 0.240951c0,0.132492 0.00842197,0.240745 0.0186927,0.240745 0.0632675,0 0.258,-0.175424 0.345917,-0.311613 0.0934634,-0.145022 0.0895605,-0.170083 -0.0275255,-0.170083l-0.0963392 0 0 -0.33729 0 -0.337084 0.120578 0 0.120373 0 0 -0.108459 0 -0.108253 0.397476 0 0.397476 0 0 0.108253 0 0.108459 0.264779 0 0.265189 0 0 0.337084 0 0.33729 -0.331127 0.000205414 -0.331333 0.000205414 -0.119346 0.210549c-0.157553,0.278336 -0.324965,0.522368 -0.564067,0.822478 -0.32743,0.410828 -0.460538,0.645 -0.570229,1.00221 -0.0979825,0.319008 -0.11647,0.348998 -0.215685,0.348998 -0.0665541,0 -0.0897659,-0.0131465 -0.11647,-0.0663487l0 0.000205414z"/>
    <path class="fil0" d="M61.0285 15.6883c-0.0135573,-0.0254713 -0.058543,-0.147282 -0.0998312,-0.270941 -0.132697,-0.395833 -0.270325,-0.634524 -0.636989,-1.10389 -0.213631,-0.273406 -0.376729,-0.517027 -0.52853,-0.789611l-0.0965446 -0.172753 -0.331127 -0.000616242 -0.331333 -0.000616242 0 -0.33729 0 -0.337084 0.264984 0 0.264984 0 0 -0.108459 0 -0.108253 0.397476 0 0.397271 0 0 0.108253 0 0.108459 0.120578 0 0.120578 0 0 0.337084 0 0.33729 -0.0965446 0c-0.101475,0 -0.113594,0.0182818 -0.0686083,0.104145 0.0747707,0.142763 0.314489,0.377551 0.385562,0.377551 0.0110924,0 0.020336,-0.108253 0.020336,-0.240745l0 -0.240951 -0.108459 0 -0.108459 0 0 -0.33729 0 -0.337084 0.0979825 0c0.0819602,0 0.0959283,-0.00698408 0.085863,-0.0423153 -0.00677866,-0.0230064 -0.0193089,-0.0914092 -0.0279363,-0.151801 -0.0186927,-0.132287 -0.121194,-0.32743 -0.203976,-0.388027 -0.0330717,-0.0244443 -0.0955175,-0.0544347 -0.138449,-0.0667595l-0.0784681 -0.0221847 0 0.202949 0 0.203154 -0.397271 0 -0.397476 0 0 -0.283677 0 -0.283882 -0.174602 -0.0445748c-0.361323,-0.0926417 -0.556877,-0.210139 -0.798855,-0.480669l-0.160428 -0.179121 0 -0.307299c0,-0.288401 0.00349204,-0.311202 0.0564888,-0.369745 0.0310175,-0.0343041 0.0868901,-0.105788 0.123865,-0.15858 0.0369745,-0.0529968 0.155498,-0.179326 0.263546,-0.280801l0.19617 -0.184051 0.00862739 -0.792487c0.00780573,-0.710527 0.00328662,-0.826586 -0.0414936,-1.11786 -0.0784681,-0.5084 -0.19617,-0.871366 -0.391314,-1.20599 -0.129411,-0.222053 -0.213631,-0.319008 -0.247524,-0.285115 -0.0193089,0.0191035 -0.028758,0.896221 -0.0334825,3.13277l-0.00657325 3.10606 0.325787 0 0.325787 0 0 0.337084 0 0.33729 -0.722646 0 -0.722441 0 0 -4.25145c0,-2.33823 0.00801115,-4.25104 0.0180764,-4.25084 0.00965446,0.000205414 0.129822,0.0593646 0.266627,0.131465 0.977565,0.514357 1.61784,1.39332 1.8251,2.50543 0.0373853,0.200279 0.0790844,1.46399 0.0811385,2.451 0.000821656,0.486831 -0.000410828,0.499772 -0.0480669,0.499772 -0.153033,0 -0.312024,0.151185 -0.312229,0.296412 -0.000410828,0.162688 0.164126,0.304013 0.355572,0.305245 0.0963392,0.000821656 0.108048,-0.0166385 0.367486,-0.541266 0.219177,-0.443283 0.357215,-0.828845 0.444105,-1.24111 0.0577213,-0.27279 0.061008,-0.3301 0.0605971,-1.0055 -0.000205414,-0.393779 -0.0160223,-1.01105 -0.0353312,-1.37134 -0.0464236,-0.870544 -0.0131465,-1.34834 0.147282,-2.11104 0.116059,-0.552153 0.328046,-1.08787 0.430548,-1.08787 0.0985987,0 0.274844,0.433629 0.406309,0.99975 0.123043,0.529763 0.211987,1.31198 0.192062,1.68604 -0.00390287,0.072922 -0.0250605,0.544347 -0.0468344,1.04782 -0.0437532,1.00817 -0.0351258,1.40893 0.0400557,1.81155 0.0267038,0.142968 0.0548455,0.29518 0.0626513,0.337906l0.014379 0.0780573 -0.262108 0.120167c-0.450267,0.206236 -0.411239,0.169467 -0.579473,0.546401 -0.206646,0.463209 -0.300931,0.70457 -0.313256,0.803374 -0.0104761,0.0809331 -0.00123248,0.0926417 0.233145,0.296412 0.134341,0.116881 0.253892,0.208906 0.265806,0.204798 0.0117086,-0.00410828 0.125713,-0.104145 0.253481,-0.222053 0.231502,-0.213836 0.232323,-0.215068 0.217533,-0.308737 -0.00842197,-0.0513535 -0.112567,-0.316954 -0.231912,-0.589538 -0.11914,-0.27279 -0.213836,-0.498745 -0.210139,-0.502032 0.0308121,-0.0289634 0.636578,-0.267244 0.649314,-0.25533 0.00924363,0.00862739 0.0710732,0.142968 0.137627,0.298877 0.118935,0.278131 0.364199,0.772767 0.4591,0.927033 0.0388232,0.0628567 0.0640892,0.0782627 0.126946,0.0776465 0.103939,-0.000616242 0.267244,-0.076414 0.316338,-0.146666 0.122221,-0.174191 -0.0482723,-0.454992 -0.276076,-0.454992l-0.0523806 0 0.0168439 -1.2824c0.011914,-0.90793 0.0271146,-1.35327 0.0515589,-1.52376 0.144201,-1.00078 0.646849,-1.83907 1.44468,-2.40889 0.207263,-0.147898 0.521341,-0.327019 0.631237,-0.360091l0.0542293 -0.0162277 0 4.2531 0 4.25289 -0.722646 0 -0.722646 0 0 -0.322705c0,-0.271763 0.00595701,-0.32476 0.038207,-0.337084 0.0207468,-0.00801115 0.167207,-0.0145844 0.324965,-0.0145844l0.287169 0 -0.0014379 -3.05307c-0.000821656,-1.67905 -0.0088328,-3.09579 -0.0180764,-3.14776l-0.0168439 -0.0946958 -0.104761 0.118729c-0.202127,0.229037 -0.405282,0.729836 -0.513946,1.26617 -0.0521752,0.256767 -0.0554618,0.329895 -0.0554618,1.17353l0 0.899508 0.19617 0.184256c0.108048,0.101475 0.226572,0.227804 0.263752,0.280801 0.0367691,0.0527914 0.0926417,0.124275 0.123659,0.15858 0.0529968,0.058543 0.0564888,0.0813439 0.0564888,0.369745l0 0.307299 -0.160428 0.179121c-0.242183,0.27053 -0.437532,0.388027 -0.798855,0.480669l-0.174602 0.0445748 0 0.283882 0 0.283677 -0.397476 0 -0.397476 0 0 -0.192678c0,-0.178299 -0.00369745,-0.192678 -0.0492994,-0.192678 -0.189597,0 -0.38433,0.28265 -0.38433,0.557904 0,0.0895605 0.00267038,0.0924363 0.0844251,0.0924363l0.0842197 0 0 0.337084 0 0.33729 -0.108253 0 -0.108459 0 0 0.240951c0,0.132492 0.00924363,0.240745 0.020336,0.240745 0.0710732,0 0.310791,-0.234788 0.385562,-0.377551 0.0451911,-0.085863 0.0328662,-0.104145 -0.0688137,-0.104145l-0.0963392 0 0 -0.33729 0 -0.337084 0.120578 0 0.120373 0 0 -0.108459 0 -0.108253 0.397476 0 0.397476 0 0 0.108253 0 0.108459 0.264779 0 0.265189 0 0 0.337084 0 0.33729 -0.331127 0.000616242 -0.331333 0.000616242 -0.0963392 0.172753c-0.139887,0.250605 -0.360502,0.575775 -0.56838,0.837678 -0.348177,0.438559 -0.491556,0.69204 -0.600014,1.05994 -0.0809331,0.274433 -0.106199,0.313051 -0.204387,0.313051 -0.0568997,0 -0.0905876,-0.014379 -0.107637,-0.0462181z"/>
    <path class="fil0" d="M61.0193 15.6684c-0.0182818,-0.0365637 -0.0630621,-0.158374 -0.0998312,-0.271146 -0.101475,-0.313462 -0.262724,-0.597755 -0.564683,-0.997079 -0.29251,-0.386178 -0.473274,-0.654654 -0.606382,-0.899508l-0.0817548 -0.150158 -0.331127 -0.000205414 -0.331333 -0.000410828 0 -0.33729 0 -0.337084 0.264984 0 0.264984 0 0 -0.108459 0 -0.108253 0.397476 0 0.397271 0 0 0.108253 0 0.108459 0.120578 0 0.120578 0 0 0.337084 0 0.33729 -0.0829872 0c-0.0456019,0 -0.0901767,0.011914 -0.099215,0.0264984 -0.038207,0.0616242 0.308532,0.455197 0.400763,0.455197 0.0123248,0 0.0221847,-0.108253 0.0221847,-0.240745l0 -0.240951 -0.108459 0 -0.204798 0 -0.168645 -0.361323 0.264984 -0.313051 -0.0246497 0.0240334c0.0949013,0 0.216096,-0.0248551 0.202333,-0.102296 -0.0622404,-0.350025 -0.169467,-0.514562 -0.373237,-0.573105l-0.0694299 -0.0197197 0 0.202949 0 0.203154 -0.397271 0 -0.397476 0 0 -0.283677 0 -0.283882 -0.174602 -0.0437532c-0.354339,-0.0887388 -0.556466,-0.210549 -0.798855,-0.48149l-0.160428 -0.179121 0 -0.301959 0 -0.301959 0.134341 -0.176245c0.073949,-0.09675 0.217533,-0.25307 0.319213,-0.34715l0.185078 -0.171315 0.00944904 -0.774822c0.00821656,-0.642535 0.00267038,-0.825148 -0.0316338,-1.06918 -0.0768248,-0.543936 -0.201922,-0.929293 -0.423769,-1.30623 -0.131876,-0.223901 -0.199457,-0.296823 -0.23068,-0.248346 -0.0112978,0.0174602 -0.023828,1.42722 -0.0279363,3.13277l-0.00780573 3.10134 0.327019 0 0.326608 0 0 0.337084 0 0.33729 -0.722646 0 -0.722441 0 0 -4.25145c0,-2.33823 0.00616242,-4.25125 0.0139682,-4.25125 0.0439586,0 0.523189,0.266833 0.676839,0.37714 0.714224,0.512508 1.14046,1.15073 1.37853,2.06482 0.0725111,0.278131 0.0944904,0.662049 0.112978,1.97197l0.0164331 1.17415 -0.0538185 0c-0.0893551,0 -0.22082,0.0755923 -0.268887,0.154882 -0.0920255,0.150568 -0.0380016,0.315516 0.130027,0.39686 0.0575159,0.0277309 0.138654,0.0505318 0.180148,0.0505318 0.0686083,0 0.0854522,-0.0166385 0.177478,-0.174191 0.265189,-0.45417 0.502443,-1.04186 0.624869,-1.548 0.0462181,-0.190419 0.0538185,-0.303396 0.0632675,-0.927444 0.00698408,-0.453965 -0.00267038,-0.975716 -0.026293,-1.44509 -0.0478615,-0.957024 -0.0182818,-1.40031 0.144817,-2.17616 0.116059,-0.552153 0.328046,-1.08787 0.430548,-1.08787 0.0279363,0 0.0721003,0.0513535 0.124275,0.144611 0.19843,0.354955 0.411033,1.30109 0.462798,2.05989 0.0197197,0.289839 0.0152006,0.465468 -0.046629,1.83024 -0.015406,0.337701 -0.0207468,0.755102 -0.0115032,0.927444 0.0141736,0.268887 0.0353312,0.423358 0.125508,0.920871l0.0141736 0.0780573 -0.314694 0.111745 -0.362967 0.20829 -0.0762086 0.159401c-0.118935,0.248346 -0.351669,0.798855 -0.385562,0.912038 -0.0195143,0.0653216 -0.0225955,0.118524 -0.00862739,0.147282 0.0279363,0.0579267 0.465673,0.44164 0.492788,0.432191 0.0112978,-0.00410828 0.12407,-0.102912 0.250605,-0.219793 0.147076,-0.135779 0.229858,-0.230269 0.229858,-0.261697 0,-0.0581322 -0.117702,-0.358858 -0.317365,-0.811385 -0.0782627,-0.177067 -0.139271,-0.32517 -0.135368,-0.328868 0.0308121,-0.0289634 0.637194,-0.26786 0.649519,-0.25574 0.00903822,0.00862739 0.0727165,0.145639 0.14153,0.304629 0.149747,0.345506 0.310791,0.671704 0.424591,0.86089 0.0731274,0.121194 0.0930525,0.138654 0.15858,0.138654 0.0410828,0 0.122016,-0.022801 0.179532,-0.0505318 0.167823,-0.0813439 0.222053,-0.246291 0.130232,-0.39686 -0.0482723,-0.0790844 -0.179737,-0.154882 -0.268681,-0.154882l-0.0538185 0 0.0166385 -1.2824c0.011914,-0.893345 0.0273201,-1.35368 0.0507373,-1.51637 0.146666,-1.01228 0.644384,-1.844 1.4457,-2.41628 0.207263,-0.147898 0.521341,-0.327019 0.631237,-0.360091l0.0542293 -0.0162277 0 4.2531 0 4.25289 -0.722646 0 -0.722646 0 0 -0.322705c0,-0.271763 0.00595701,-0.32476 0.038207,-0.337084 0.0207468,-0.00801115 0.167207,-0.0145844 0.324965,-0.0145844l0.287169 0 -0.0028758 -2.98076c-0.00184873,-1.63961 -0.00985987,-3.05635 -0.0180764,-3.14859l-0.0152006 -0.167618 -0.0920255 0.107432c-0.28039,0.326608 -0.514562,1.00797 -0.572694,1.66714 -0.0162277,0.183435 -0.0234172,0.59303 -0.0176656,0.999134l0.00985987 0.687931 0.184667 0.17111c0.10168,0.0940796 0.245264,0.2504 0.319419,0.34715l0.134135 0.176245 0 0.301959 0 0.301959 -0.160428 0.179121c-0.242388,0.270941 -0.444516,0.392752 -0.798855,0.48149l-0.174602 0.0437532 0 0.283882 0 0.283677 -0.396449 0 -0.396449 0 -0.00698408 -0.186721c-0.00636783,-0.166796 -0.0123248,-0.187338 -0.056078,-0.193705 -0.145844,-0.0207468 -0.343247,0.2504 -0.366253,0.502443l-0.0129411 0.142968 0.0877118 0 0.0875064 0 0 0.337084 0 0.33729 -0.108253 0 -0.108459 0 0 0.240951c0,0.132492 0.0100653,0.240745 0.0221847,0.240745 0.0922309,0 0.438764,-0.393573 0.400763,-0.455197 -0.00903822,-0.0145844 -0.053613,-0.0264984 -0.099215,-0.0264984l-0.227393 -0.0240334 -0.0240334 -0.33729 0.0240334 -0.313051 0.264984 0 0.120373 0 0 -0.108459 0.120578 -0.252865 0.120167 0.144611 0.156731 0 0.397476 0 0 0.108253 0 0.108459 0.264779 0 0.265189 0 0 0.337084 0 0.33729 -0.331127 0.000616242 -0.331333 0.000616242 -0.0963392 0.172753c-0.140914,0.252659 -0.35701,0.569202 -0.617885,0.905054 -0.294564,0.379605 -0.417401,0.596317 -0.528119,0.932374 -0.119346,0.361529 -0.126535,0.373237 -0.227188,0.373237 -0.0663487,0 -0.0895605,-0.0131465 -0.11647,-0.0661433z"/>
   </g>
   <polygon class="fil1 str2" points="67.3304,5.63779 67.3304,5.47387 83.2159,5.47387 83.2159,8.42177 67.3304,8.42177 "/>
   <polygon class="fil1 str2" points="67.3316,20.5406 67.3316,20.3767 83.2169,20.3767 83.2169,23.3246 67.3316,23.3246 "/>
   <polygon class="fil1 str2" points="67.3316,15.6275 67.3316,15.4636 83.2169,15.4636 83.2169,18.4115 67.3316,18.4115 "/>
   <polygon class="fil1 str2" points="67.3304,10.6947 67.3304,10.531 83.2159,10.531 83.2159,13.4789 67.3304,13.4789 "/>
   <path class="fil0" d="M76.8152 58.6693c-0.669033,-0.0106815 -1.18647,-0.0299904 -1.19921,-0.0451911 -0.0123248,-0.0149952 -0.0380016,-0.085863 -0.0568997,-0.157553 -0.0694299,-0.261287 -0.308737,-0.863766 -0.500388,-1.25919 -0.94511,-1.9502 -2.44135,-3.30306 -4.32787,-3.91293 -0.752226,-0.243621 -1.41695,-0.336468 -2.4245,-0.339755 -0.802552,-0.00246497 -1.0168,0.017871 -1.66488,0.157758 -1.14909,0.248346 -2.35055,0.8385 -3.2743,1.6088 -0.51107,0.426029 -1.16429,1.17065 -1.57142,1.79121 -0.334414,0.509838 -0.737436,1.30582 -0.935661,1.84749l-0.0932579 0.255124 -1.27952 -0.020336 -1.27952 -0.0205414 -0.57783 -0.390081c-0.317981,-0.214863 -0.588922,-0.400968 -0.602274,-0.414115 -0.022801,-0.0219793 0.324554,-1.28815 0.36728,-1.33807 0.0139682,-0.0164331 1.30356,-0.165153 1.43502,-0.165564 0.0191035,0 0.409595,-0.93299 0.409595,-0.978181 0,-0.0160223 -0.158169,-0.242183 -0.351874,-0.502648 -0.1935,-0.26026 -0.386178,-0.521341 -0.428288,-0.579884l-0.0768248 -0.107021 0.307299 -0.457662c0.27772,-0.413293 0.314694,-0.457046 0.380632,-0.448624 0.0400557,0.00492994 0.420893,0.0735382 0.846306,0.152006 0.425207,0.0784681 0.784681,0.142763 0.79865,0.142763 0.0283471,0 0.532638,-0.701283 0.533049,-0.741544 0.000205414,-0.0141736 -0.100653,-0.322089 -0.224517,-0.684645 -0.123454,-0.36235 -0.219588,-0.663282 -0.213425,-0.668623 0.0768248,-0.0688137 0.962981,-0.742161 0.976743,-0.742161 0.0102707,0 0.324965,0.195143 0.699229,0.43404 0.374264,0.238896 0.689986,0.434245 0.701283,0.434245 0.0115032,0 0.186516,-0.0938742 0.389054,-0.208495l0.368102 -0.208906 0.00349204 -0.203771c0.00205414,-0.111951 0.0112978,-0.489707 0.0205414,-0.839116l0.0172548 -0.635345 0.555029 -0.178094 0.554823 -0.178094 0.585635 0.675812c0.321884,0.371799 0.597138,0.676017 0.611312,0.676017 0.0439586,0 0.690807,-0.118935 0.700051,-0.128589 0.00492994,-0.00513535 0.123248,-0.385151 0.263341,-0.845073l0.254303 -0.835829 0.177683 -0.017871c0.0977771,-0.0102707 0.356188,-0.0230064 0.574543,-0.0291688l0.39686 -0.0106815 0.155909 0.361734c0.0856576,0.199046 0.251632,0.585224 0.368307,0.858014l0.212809 0.495664 0.387205 0.0807277c0.339344,0.070457 0.391108,0.0751815 0.417812,0.0373853 0.0166385,-0.0236226 0.258,-0.355777 0.535925,-0.738258l0.505524 -0.694916 0.490323 0.133314c0.269709,0.0733328 0.497102,0.140298 0.505318,0.149131 0.00801115,0.00862739 0.0581322,0.392546 0.111129,0.853495 0.0532022,0.460538 0.103118,0.876912 0.110718,0.92539 0.0131465,0.079906 0.0478615,0.105172 0.396244,0.286963l0.38207 0.199046 0.622199 -0.482312c0.34222,-0.265189 0.628361,-0.482312 0.635756,-0.482312 0.0100653,0 0.817342,0.616037 0.975922,0.744831 0.00677866,0.00554618 -0.0645,0.370978 -0.158374,0.812207 -0.0938742,0.441435 -0.170904,0.82371 -0.170699,0.849592 0,0.0256767 0.130643,0.173986 0.290045,0.329484l0.290045 0.282444 0.757567 -0.268476c0.640275,-0.226572 0.763524,-0.262314 0.793309,-0.22842 0.0408774,0.0468344 0.593236,0.944083 0.593236,0.964008 0,0.00718949 -0.173164,0.33996 -0.385151,0.73908 -0.211987,0.399119 -0.385151,0.743188 -0.385151,0.764551 0,0.0213631 0.0675812,0.194116 0.150568,0.383713l0.150774 0.344479 0.771124 0.0256767 0.771124 0.0254713 0.0640892 0.220615c0.0351258,0.121194 0.104556,0.370361 0.15406,0.553385l0.0899713 0.332976 -0.608847 0.636989c-0.334825,0.350231 -0.617885,0.637605 -0.628772,0.638632 -0.0108869,0.00102707 -0.549482,-0.00636783 -1.19674,-0.0162277z"/>
   <path class="fil0" d="M82.8975 57.2177c11.6059,-5.03305 24.0618,-8.70401 33.5273,-9.88082 3.86712,-0.480874 8.20321,-0.621583 11.0562,-0.358242 1.18709,0.109486 3.96942,0.530173 4.27035,0.645411 0.0731274,0.0279363 0.465263,0.897248 0.871161,1.9311 1.16696,2.97255 2.90661,7.59292 2.90661,7.71966 0,0.0636783 -0.247524,0.00760032 -0.549893,-0.124481 -2.59212,-1.13265 -6.18029,-1.88159 -11.3195,-2.36267 -2.65908,-0.248756 -9.58297,-0.343452 -13.1436,-0.179532 -7.83367,0.360502 -16.3567,1.29226 -25.5753,2.7963 -1.93336,0.31531 -3.57482,0.571873 -3.64754,0.569818 -0.0731274,-0.00164331 0.648903,-0.34222 1.60428,-0.75654z"/>
   <path class="fil0" d="M53.1186 57.5087c-11.6059,-5.03305 -24.0618,-8.70401 -33.5273,-9.88103 -3.86712,-0.480874 -8.20321,-0.621377 -11.056,-0.358242 -1.18729,0.109691 -3.96963,0.530379 -4.27035,0.645616 -0.0733328,0.0281417 -0.465468,0.897248 -0.871366,1.9311 -1.16696,2.97255 -2.90661,7.59272 -2.90661,7.71966 0,0.0636783 0.247524,0.00760032 0.550099,-0.124686 2.59191,-1.13245 6.18009,-1.88139 11.3195,-2.36226 2.65888,-0.248962 9.58297,-0.343658 13.1434,-0.179943 7.83367,0.360707 16.3567,1.29246 25.5753,2.7963 1.93336,0.315516 3.57482,0.572078 3.64754,0.570229 0.0731274,-0.00205414 -0.648903,-0.342425 -1.60428,-0.756745z"/>
   <path class="fil0" d="M79.9699 52.6912c7.11575,-6.74066 18.2128,-12.7437 29.069,-15.7253 4.90426,-1.3469 11.3438,-2.40704 15.623,-2.5724l0.974073 -0.0375908 1.38346 3.0543c1.08869,2.40293 1.34998,3.07484 1.22612,3.15352 -0.0864793,0.0550509 -0.731479,0.100653 -1.43317,0.10168 -3.91375,0.00534076 -11.0798,0.788379 -16.5424,1.80764 -10.982,2.04921 -21.4923,5.69962 -29.7674,10.3387 -0.695737,0.390081 -1.29514,0.707035 -1.3317,0.704365 -0.0365637,-0.00267038 0.322911,-0.373853 0.79906,-0.824943z"/>
   <path class="fil0" d="M76.2671 49.9891c0,-0.148103 2.34275,-3.3236 3.71614,-5.03737 3.85295,-4.8071 8.51092,-9.40673 13.2488,-13.0824 1.51328,-1.17415 5.09057,-3.57256 6.65849,-4.46426 4.64667,-2.64245 9.47698,-4.46755 14.2311,-5.37692l1.08767 -0.20829 1.06384 1.11499c0.585019,0.613161 1.92658,2.02661 2.98117,3.14119l1.91733 2.02661 -1.08849 0.0805223c-4.16867,0.308737 -9.47883,1.51678 -14.5185,3.30306 -9.95066,3.52675 -20.1825,9.87137 -28.0528,17.3951 -0.684645,0.654449 -1.24481,1.15299 -1.24481,1.1078z"/>
   <path class="fil0" d="M72.6206 47.5468c-0.0106815,-0.601041 1.09773,-4.00146 1.9313,-5.92517 4.60189,-10.6201 13.6284,-20.8721 26.6543,-30.2735 0.819396,-0.591181 1.13471,-0.759415 1.28548,-0.685466 0.109691,0.0538185 1.73308,1.21523 3.60727,2.58062l3.40761 2.48263 -2.60855 1.30232c-4.87735,2.43518 -10.0258,5.53241 -14.1888,8.53577 -9.17708,6.62049 -15.5488,13.4661 -19.4194,20.8633 -0.366664,0.700667 -0.667801,1.20455 -0.669239,1.11951z"/>
  </g>
 </g>
</svg>
